<svg xmlns="http://www.w3.org/2000/svg" width="1086" height="277"><defs><path id="b" d="M302.822 204.229h416.674v70.424H302.822z"/><path id="a" d="M799.593-107.637h676.578v155.69H799.593z"/></defs><path fill="#fff" d="M509.507 2.007c-.505.045-1.033.202-1.194.337-.16.135-2.135.27-4.592.314-5.58.135-6.567.247-7.21.785-.367.315-.85.427-1.768.427-1.699 0-4.201.426-4.638.808-.39.314-2.8.762-4.201.762-.528 0-.919.113-.988.315-.183.448-1.331.807-2.502.807-.643 0-1.171.157-1.585.472-.344.246-1.285.605-2.135.785-.85.157-1.584.404-1.676.538-.184.292-1.975.898-2.663.898-.276 0-.712.247-.965.56-.344.427-.666.562-1.377.562-.666 0-1.034.134-1.24.426-.161.225-.78.561-1.332.718-.574.157-1.263.516-1.538.808-.276.27-.919.56-1.424.65-.735.113-.987.27-1.079.674-.115.449-.276.538-1.033.538-.62 0-1.01.135-1.309.472-.207.246-.895.673-1.492.92-.597.246-1.194.65-1.332.875-.115.246-.46.426-.735.426-.298 0-.597.202-.735.494-.137.291-.436.538-.688.583-1.171.157-1.493.292-1.493.628 0 .18-.344.471-.735.65-.413.158-.872.495-1.033.741-.16.247-.597.516-.987.606-.39.09-.873.404-1.056.696-.207.292-.574.538-.804.538-.275 0-.528.225-.666.561-.115.314-.367.561-.55.561-.207 0-.713.36-1.149.786-.46.426-.941.785-1.079.785-.276 0-.895.516-2.273 1.84-.367.359-.758.628-.896.628-.137 0-.367.247-.482.561-.115.314-.459.606-.803.696-.322.067-.574.269-.574.448 0 .158-.299.45-.69.651-.39.202-.688.539-.688.763 0 .27-.207.471-.574.561-.344.09-.62.359-.712.696-.092.403-.298.56-.666.56-.367 0-.574.158-.665.517-.07.291-.39.65-.69.785-.298.135-.596.471-.642.763-.046.336-.253.538-.574.583-.345.045-.528.225-.528.516 0 .27-.23.516-.574.651-.322.112-.574.314-.574.449 0 .112-.368.606-.804 1.1-.436.47-.804.964-.804 1.121 0 .135-.298.539-.688.875-.368.36-.69.808-.69.988 0 .202-.252.426-.55.493-.345.09-.597.314-.643.628-.046.292-.345.651-.689.808-.413.18-.643.471-.643.786 0 .269-.321.83-.689 1.256-.39.404-.688.898-.688 1.077 0 .157-.253.427-.574.561-.322.135-.574.404-.574.606-.023.202-.322.718-.69 1.144-.39.427-.688 1.01-.688 1.28 0 .336-.207.605-.574.785-.322.134-.574.448-.574.673 0 .471-.643 1.548-1.08 1.817-.16.09-.298.382-.298.606 0 .247-.183.606-.436.83-.551.516-.941 1.28-.941 1.795 0 .225-.207.584-.437.786-.252.202-.574.808-.711 1.346-.161.516-.46 1.077-.69 1.234-.252.18-.527.808-.688 1.481-.138.673-.482 1.436-.804 1.773-.436.47-.574.852-.574 1.638 0 .852-.092 1.054-.55 1.256-.414.202-.575.471-.667 1.302-.137 1.01-.688 2.356-1.079 2.602-.115.068-.275.696-.367 1.414-.069.696-.39 1.683-.689 2.199-.413.673-.55 1.257-.55 2.266 0 1.122-.093 1.414-.529 1.795-.482.382-.574.74-.689 2.446-.115 1.459-.252 2.132-.597 2.58-.367.472-.528 1.257-.758 3.905-.16 1.84-.39 3.433-.528 3.567-.62.606-.803 3.635-.803 12.858 0 9.356.183 12.632.803 13.732.184.314.414 1.862.551 3.433.115 1.548.322 3.051.46 3.298.137.27.367.673.482.92.138.27.298 1.28.39 2.244.069.987.23 1.795.322 1.795.114 0 .206.135.206.314 0 .157.138.427.322.561.183.157.344.898.413 1.975.092 1.346.207 1.772.574 2.064.298.247.551.875.735 1.907.16.853.482 1.795.712 2.11.252.291.505.897.574 1.368.16.898.55 1.773.964 2.222.16.157.298.56.298.897 0 .987.253 1.593.69 1.728.298.09.458.449.573 1.234.092.628.276 1.19.436 1.301.368.202 1.057 1.571 1.057 2.087 0 .225.252.65.574.965.344.337.574.83.574 1.212 0 .448.16.718.528.875.367.157.597.583.826 1.391.207.83.414 1.144.712 1.144.299 0 .436.247.551.875.092.561.345 1.055.712 1.324.344.27.574.673.574 1.01 0 .381.16.628.436.718.253.067.643.583.873 1.122.23.538.643 1.1.918 1.212.344.157.528.426.528.785 0 .404.138.56.505.628.368.045.551.247.597.628.046.292.437.943.873 1.437.436.493.78 1.032.78 1.189 0 .157.253.404.574.516.345.134.574.381.574.673 0 .292.207.494.574.583.414.09.574.292.574.674 0 .381.184.605.574.762.322.113.574.337.574.517 0 .157.276.538.643.852.528.494 1.47 1.504 3.238 3.545.275.292.482.606.482.696 0 .09.207.224.482.292.253.067.528.336.597.583.069.27.207.471.299.471.16 0 1.377 1.077 4.155 3.703.46.426.988.785 1.194.785.207 0 .414.202.506.426.068.247.436.539.78.651.368.135.735.449.827.696.069.269.275.47.459.47.16 0 .528.315.804.674.275.381.62.673.78.673.161 0 .69.292 1.171.673.482.36.988.673 1.148.673.161 0 .46.247.666.561.207.314.528.561.712.561.184 0 .643.314 1.033.673.39.382.941.674 1.286.674.39 0 .62.18.78.56.115.315.39.561.643.561s.896.36 1.447.786c.551.426 1.17.785 1.378.785.206 0 .528.225.711.471.184.292.666.539 1.217.629.62.09.988.291 1.125.628.161.314.505.516 1.102.606.529.09 1.08.359 1.378.695.276.314.712.561.987.561.253 0 .827.292 1.263.673.528.427 1.056.651 1.562.674.482 0 .964.202 1.308.538.368.36.942.583 1.745.696.85.112 1.217.269 1.286.56.092.292.505.472 1.584.674.896.18 1.7.471 2.09.808.482.403.918.538 1.676.538.712 0 1.286.157 1.837.516.505.337 1.308.584 2.158.673.804.068 1.607.314 1.952.561.642.449 2.984.943 4.569.943.643 0 .964.09.964.291 0 .36 2.02.763 4.477.92 1.034.045 2.25.27 2.756.494 2.204.942 25.968.942 29.045 0 .688-.224 2.41-.471 3.788-.583 2.365-.18 3.743-.472 4.018-.876.07-.09 1.125-.291 2.388-.426 1.745-.202 2.388-.359 2.778-.718.39-.359.942-.494 2.159-.606 1.308-.112 1.722-.224 1.974-.583.253-.36.689-.516 1.883-.628 1.125-.113 1.63-.27 1.906-.584.23-.291.872-.538 1.837-.695 1.033-.18 1.63-.404 1.905-.74.253-.315.758-.517 1.447-.607.826-.09 1.102-.224 1.286-.628.183-.404.436-.538.964-.538 1.056 0 1.745-.247 1.745-.584 0-.359.092-.404 1.538-.763.597-.134 1.01-.404 1.102-.65.092-.292.437-.472 1.125-.561.758-.113 1.057-.292 1.24-.696.207-.426.436-.56.965-.56.367 0 .688-.113.688-.225 0-.135.138-.225.299-.225.184 0 .505-.202.735-.448.23-.247.597-.45.803-.45.23 0 .574-.246.78-.56.23-.337.69-.606 1.195-.696.574-.09.872-.314 1.01-.673.138-.359.39-.538.758-.538.298 0 .757-.247 1.01-.539.276-.292.85-.673 1.309-.83.459-.157.826-.427.826-.606 0-.157.345-.426.781-.606.413-.18.827-.471.895-.673.092-.18.322-.337.529-.337.206 0 .734-.359 1.148-.762.436-.427 1.01-.853 1.24-.92.23-.068.505-.337.573-.584.092-.27.437-.493.827-.583.367-.068.666-.27.666-.427 0-.18.252-.448.574-.583.298-.135.62-.449.712-.673.069-.247.39-.516.689-.628.298-.113.665-.472.826-.786.138-.314.39-.56.574-.56.16 0 .436-.247.574-.562.138-.314.436-.56.666-.56.253 0 .482-.225.574-.54.069-.313.413-.65.78-.807.345-.134.69-.471.758-.718.07-.247.345-.494.597-.56.322-.068.482-.293.482-.652 0-.426.115-.538.552-.538.39 0 .597-.157.688-.561.092-.314.39-.696.712-.83.299-.135.597-.471.666-.763a.805.805 0 0 1 .666-.584c.321-.044.528-.246.574-.583.046-.292.321-.606.62-.718.298-.112.574-.426.62-.718.046-.292.298-.606.597-.74.275-.113.505-.292.505-.382 0-.336 1.056-1.728 1.332-1.75.16 0 .275-.292.275-.65 0-.494.138-.674.574-.786.367-.09.574-.292.574-.584 0-.246.207-.538.46-.673.252-.134.688-.74.964-1.346.275-.628.688-1.167.918-1.257.253-.067.413-.336.413-.673 0-.314.138-.538.322-.538.344 0 1.056-1.28 1.056-1.885 0-.202.253-.494.574-.628.321-.135.574-.427.574-.629 0-.74.482-1.75.895-1.862.276-.067.46-.381.551-1.032.07-.539.322-1.122.575-1.324.23-.202.528-.628.62-.942.091-.314.39-.875.688-1.234.276-.382.574-1.055.666-1.504.092-.449.413-1.054.712-1.346.39-.36.574-.763.574-1.346 0-1.1.207-1.526.689-1.526.298 0 .436-.247.55-1.122.093-.628.391-1.481.713-1.907.321-.472.62-1.324.688-2.02.115-.875.276-1.256.574-1.346.46-.135.69-1.01.69-2.49 0-.786.114-1.055.55-1.325.46-.291.551-.583.666-1.997.138-1.593.505-2.782.918-3.074.115-.067.322-1.211.46-2.535.16-1.324.39-2.468.528-2.558.436-.27.78-2.401.78-4.824 0-1.257.115-2.648.23-3.074.896-3.433.896-3.389.918-10.524 0-6.799-.16-8.998-.757-10.344-.138-.314-.299-2.02-.39-3.814-.092-2.715-.207-3.411-.62-4.264-.345-.695-.574-1.795-.758-3.478-.184-2.02-.322-2.535-.689-2.804-.344-.247-.482-.718-.597-2.02-.138-1.279-.275-1.75-.643-2.042-.344-.291-.482-.695-.55-1.907-.093-1.279-.208-1.593-.644-1.952-.321-.225-.55-.65-.55-.965 0-.987-.506-2.558-.827-2.558-.322 0-.781-1.301-.781-2.199 0-.27-.092-.494-.23-.494-.114 0-.23-.134-.23-.314 0-.157-.16-.426-.344-.583-.183-.157-.344-.561-.344-.92 0-.83-.46-1.773-.85-1.773-.16 0-.298-.224-.298-.493 0-.808-.528-1.975-.942-2.087-.275-.09-.436-.471-.55-1.234-.138-.943-.253-1.144-.712-1.257-.46-.112-.551-.291-.551-.92 0-.516-.184-.942-.551-1.301-.322-.292-.643-.785-.735-1.055-.07-.291-.46-.875-.804-1.324-.367-.448-.666-1.032-.666-1.3 0-.315-.183-.517-.574-.607-.321-.067-.574-.291-.574-.493 0-.718-.55-1.818-.964-1.908-.23-.067-.413-.314-.413-.583 0-.292-.23-.583-.574-.74-.322-.135-.574-.427-.574-.629s-.207-.56-.482-.808c-.276-.224-.69-.807-.919-1.256-.252-.471-.643-.943-.872-1.077-.253-.112-.483-.449-.529-.718-.045-.337-.252-.539-.55-.584-.345-.044-.552-.269-.62-.718-.092-.448-.299-.65-.666-.718-.39-.044-.551-.246-.597-.695-.046-.427-.207-.606-.505-.606-.23 0-.506-.224-.574-.471-.092-.27-.506-.786-.942-1.145-.436-.381-.78-.807-.78-.964 0-.18-.299-.517-.666-.786-.39-.247-.758-.65-.827-.897-.069-.225-.344-.494-.574-.561-.23-.068-.505-.337-.574-.561-.069-.225-.344-.494-.597-.561-.252-.09-.551-.404-.666-.696-.115-.291-.482-.65-.78-.763-.299-.112-.62-.404-.712-.65-.07-.27-.276-.472-.436-.472-.184 0-.758-.403-1.31-.897-.55-.494-1.124-.898-1.285-.898-.138 0-.298-.224-.344-.516-.046-.314-.253-.516-.62-.56-.299-.046-.597-.27-.643-.494-.07-.225-.39-.494-.758-.561-.344-.068-.735-.36-.872-.673-.161-.315-.39-.561-.551-.561-.161 0-.597-.315-.965-.696-.367-.359-.941-.74-1.309-.808-.367-.067-.711-.291-.78-.493-.07-.202-.414-.494-.804-.629-.367-.134-.689-.404-.689-.583 0-.202-.367-.471-.803-.606-.46-.157-1.08-.516-1.378-.808-.298-.291-.758-.538-1.033-.538-.299 0-.551-.202-.689-.561-.138-.36-.39-.561-.689-.561-.689 0-1.837-.628-1.837-1.01 0-.202-.23-.336-.505-.336-.298-.023-.895-.315-1.331-.674-.46-.403-1.057-.673-1.424-.673-.413 0-.643-.112-.643-.336 0-.404-.55-.696-1.676-.898-.482-.09-.964-.336-1.08-.538-.114-.225-.642-.516-1.193-.696-.551-.157-1.08-.426-1.217-.56-.39-.45-1.217-.786-1.929-.786-.39 0-.711-.09-.711-.225 0-.291-1.31-.83-2.48-1.01-.528-.089-1.148-.313-1.355-.515-.459-.45-1.974-.943-2.962-.943-.459 0-.85-.157-1.033-.449-.253-.336-.712-.493-1.952-.65-1.125-.135-1.79-.337-2.112-.65-.321-.315-.895-.472-2.273-.584-1.102-.09-2.181-.337-2.663-.584-.965-.516-3.169-.897-5.144-.897-1.033 0-1.446-.09-1.446-.292 0-.494-2.434-.808-7.049-.897-3.169-.068-4.523-.18-4.776-.382-.367-.292-7.232-.516-9.184-.292zm16.692 8.819c.758.291 2.25.538 3.95.673 2.043.18 3.03.359 3.903.763.643.291 1.883.583 2.732.673 1.515.134 2.204.381 2.87.965.16.157.85.291 1.493.291 1.515 0 2.227.202 2.227.584 0 .18.528.381 1.4.56.758.158 1.516.382 1.676.517.574.516 1.286.785 2.411.942.896.112 1.171.247 1.171.539 0 .426.62.673 1.768.673.46 0 .827.134.965.404.114.202.688.516 1.262.695.574.157 1.148.427 1.31.606.32.404 1.538.987 2.02.987.206 0 .505.202.643.427.16.247.665.493 1.216.583.62.112 1.057.337 1.31.696.183.291.504.538.665.538.436 0 1.286.471 1.63.92.161.202.574.449.919.539.344.067.757.336.918.56.16.225.62.472.987.562.39.09.873.404 1.057.695.206.292.574.539.803.539.23 0 .551.202.712.471.16.247.735.65 1.286.897.528.247.964.539.964.674 0 .112.345.359.78.538.437.18.85.539.942.785.069.247.276.45.46.45.16 0 .527.291.803.672.276.36.643.674.827.674.183 0 .78.426 1.331.942.528.538 1.516 1.414 2.182 1.975 1.722 1.458 2.755 2.513 5.533 5.676.321.36.85.92 1.171 1.257.321.314.666.763.758.987.069.247.344.471.597.539.252.067.528.359.597.673.091.292.39.65.688.74.322.135.551.404.551.651s.207.561.46.696c.252.134.666.695.918 1.234.253.56.62 1.01.78 1.01.184 0 .437.314.575.695.138.382.459.74.712.808.298.067.459.314.459.65 0 .292.298.853.666 1.257.367.404.688.942.734 1.19.046.246.322.538.62.672.276.113.505.382.505.584 0 .538.666 1.705 1.034 1.862.183.068.344.382.344.673 0 .315.276.83.597 1.19.321.336.643.897.712 1.256.069.337.298.74.505.898.413.291.941 1.346.941 1.862 0 .18.253.673.574 1.077.322.426.574 1.032.574 1.436 0 .404.07.718.184.718.23 0 .827 1.212 1.217 2.446.16.538.413 1.1.551 1.234.413.381.804 1.683.804 2.603 0 .628.114.875.55 1.1.483.246.552.493.644 1.929.091 1.212.23 1.75.574 2.11.321.336.505.942.62 1.951.091.808.413 2.132.734 2.962.413 1.1.62 2.132.689 3.747.092 1.66.276 2.536.666 3.366.482 1.077.528 1.459.666 8.751.069 4.196.046 9.85-.046 12.565-.138 4.286-.23 5.05-.62 5.722-.367.673-.46 1.257-.482 3.927-.023 3.231-.184 4.734-.574 5.206-.161.157-.138.314.023.403.688.427.023 1.683-1.08 1.997-.298.09-.528.337-.528.561 0 .225-.16.539-.344.696-.207.18-.344.673-.344 1.346 0 1.212-.368 2.379-.781 2.536-.16.067-.367.65-.46 1.279-.091.65-.39 1.526-.688 1.997-.299.449-.62 1.256-.712 1.817-.092.539-.367 1.145-.62 1.347-.298.224-.505.74-.574 1.39-.092.696-.252 1.078-.505 1.145-.207.045-.505.539-.689 1.19-.16.605-.436 1.189-.597 1.323-.344.27-1.033 1.57-1.033 1.93 0 .135-.252.494-.574.785-.321.292-.574.763-.574 1.1 0 .336-.253.808-.574 1.1-.321.29-.574.672-.574.83 0 .179-.367.762-.804 1.3-.436.54-.803 1.168-.803 1.392 0 .247-.207.426-.505.471-.345.045-.574.27-.643.628-.07.315-.39.92-.712 1.347-.344.426-.666.987-.712 1.234-.046.27-.298.471-.597.516-.367.067-.505.224-.505.628 0 .36-.184.628-.574.808-.298.135-.643.516-.78.83-.115.314-.529.92-.919 1.347-.39.403-.712.875-.712 1.01 0 .134-.23.358-.505.47-.298.135-.55.45-.597.718-.046.337-.298.561-.643.651-.39.09-.55.292-.55.673 0 .382-.139.539-.46.539-.298 0-.551.224-.689.56-.115.315-.459.652-.78.764-.299.112-.597.47-.69.785-.091.381-.298.583-.573.583-.299 0-.482.18-.528.494-.046.314-.253.539-.551.583-.276.045-.597.315-.758.629-.138.291-.505.65-.804.763-.298.112-.62.404-.712.65-.068.247-.321.516-.574.584-.23.067-.482.381-.55.673-.115.404-.3.56-.712.56-.414 0-.643.158-.804.54-.092.291-.46.583-.758.673-.321.067-.62.336-.689.583-.068.247-.505.606-.964.785-.46.202-.872.494-.941.673-.07.18-.482.427-.896.561-.436.135-.85.45-.918.696-.092.224-.23.426-.345.426-.114 0-.55.314-.964.673-.413.382-1.01.763-1.332.83-.298.068-.803.382-1.102.674-.275.269-.666.516-.85.516-.183 0-.435.18-.55.404-.115.202-.735.583-1.378.808-.85.291-1.17.516-1.17.83 0 .291-.162.426-.483.426-.505 0-1.814.673-1.814.92 0 .09-.321.247-.735.314-.39.09-.918.337-1.148.561-.252.224-1.056.606-1.79.875-.735.27-1.447.628-1.608.808-.16.18-.528.337-.85.337-.298 0-.895.224-1.285.516-.413.291-1.24.65-1.883.807-.62.157-1.309.45-1.515.674-.207.224-1.034.516-1.814.673-.827.157-1.561.448-1.791.718-.276.314-.666.426-1.447.426-1.01 0-2.502.561-2.502.942 0 .113-.276.18-.62.18-.965 0-3.33.583-3.49.875-.092.135-1.286.404-2.664.606-1.4.202-2.548.449-2.594.56-.046.113-.253.203-.482.203-.207 0-.483.09-.597.202-.138.112-1.768.247-3.674.291-2.916.09-3.628.18-4.57.606-1.101.471-1.308.471-9.183.404-7.187-.045-8.174-.112-9.093-.471-.78-.314-1.974-.449-4.775-.583-3.008-.135-3.789-.225-4.019-.517-.183-.246-.94-.448-2.342-.605-1.24-.157-2.525-.472-3.237-.786-.643-.291-1.722-.606-2.41-.695-.69-.068-1.677-.382-2.205-.673-.528-.292-1.332-.539-1.768-.539-.78 0-1.423-.247-2.204-.808-.184-.157-.804-.336-1.355-.426-.55-.09-1.332-.381-1.745-.673-.436-.27-1.17-.561-1.653-.628-.482-.09-1.125-.36-1.424-.629-.298-.269-1.01-.583-1.607-.695-.574-.09-1.217-.382-1.4-.606-.184-.247-.735-.516-1.194-.584-.482-.09-1.125-.403-1.447-.695-.321-.292-.941-.584-1.377-.673-.483-.09-.85-.292-.919-.561-.092-.27-.367-.427-.689-.427-.298 0-.688-.134-.85-.291-.596-.561-1.744-1.28-2.089-1.28-.183 0-.505-.246-.688-.538-.207-.291-.643-.606-.988-.673-.344-.09-.941-.404-1.308-.718-.368-.292-.781-.538-.942-.538-.16 0-.413-.247-.55-.561-.139-.315-.437-.561-.62-.561-.207 0-.736-.36-1.195-.786-.459-.426-1.01-.785-1.24-.785-.23 0-.482-.202-.55-.449-.093-.27-.414-.516-.804-.583-.437-.09-.69-.314-.781-.673-.092-.292-.298-.539-.482-.539-.16 0-.528-.314-.804-.673-.275-.381-.689-.673-.918-.673-.253 0-.46-.225-.551-.561-.092-.314-.299-.561-.482-.561-.184 0-.988-.606-1.768-1.346-.758-.74-1.493-1.347-1.608-1.347-.091 0-.183-.112-.183-.246 0-.315-.574-.876-.896-.876-.137 0-.252-.067-.252-.18 0-.089-.597-.762-1.332-1.502-.735-.74-1.4-1.526-1.492-1.75-.07-.203-.299-.382-.483-.382-.183 0-.367-.224-.413-.494-.046-.291-.298-.628-.597-.74a1.326 1.326 0 0 1-.666-.74c-.069-.292-.367-.629-.666-.719-.298-.112-.55-.359-.55-.516 0-.18-.207-.493-.483-.74-.275-.225-.666-.786-.895-1.212-.23-.426-.62-.987-.896-1.212-.275-.246-.482-.605-.482-.807 0-.202-.252-.494-.574-.629-.321-.134-.574-.403-.574-.56 0-.158-.298-.651-.689-1.055-.413-.449-.689-1.01-.689-1.369 0-.449-.137-.628-.574-.74-.344-.09-.574-.314-.574-.561 0-.561-.665-1.818-1.056-1.975-.16-.067-.367-.336-.459-.583-.069-.27-.344-.718-.62-.988-.252-.291-.528-.897-.597-1.346-.115-.65-.275-.875-.62-.92-.39-.045-.528-.27-.643-1.144-.092-.74-.321-1.212-.711-1.548-.299-.27-.62-.83-.712-1.324-.07-.471-.345-1.01-.597-1.212-.299-.224-.505-.718-.574-1.391-.07-.583-.207-1.055-.322-1.055-.252 0-.803-1.234-1.148-2.647-.16-.629-.413-1.167-.55-1.167-.161 0-.391-.561-.552-1.257-.23-1.01-.367-1.211-.666-1.1-.206.068-.298.068-.23-.022.093-.09-.022-.404-.275-.695-.344-.427-.39-.673-.23-1.1.138-.336.138-.538 0-.538-.114 0-.137-.157-.068-.382.092-.224.046-.314-.092-.224s-.299 0-.39-.18c-.07-.18 0-.336.16-.336.46 0 .322-1.593-.206-2.49-.299-.494-.528-1.37-.62-2.447-.138-1.682-.528-3.14-.873-3.365-.23-.157-.666-4.623-.666-6.866 0-.988-.137-1.863-.344-2.29-.941-1.817-.941-14.427 0-16.177.23-.426.344-1.301.344-2.423.023-2.244.39-6.104.643-6.44.368-.471.712-2.042.873-3.882.115-1.369.275-1.975.597-2.311.321-.337.505-.965.62-2.087.114-1.212.275-1.75.62-2.087.344-.336.528-.897.642-1.974.092-.808.299-1.548.46-1.638.39-.247.757-1.212.941-2.401.138-.83.299-1.122.712-1.302.482-.224.55-.403.55-1.346 0-.785.093-1.122.345-1.234.39-.135 1.034-1.458 1.034-2.11 0-.246.091-.425.23-.425.298 0 1.147-1.66 1.147-2.244 0-.247.138-.449.322-.449.321 0 .826-1.1.826-1.818 0-.224.207-.448.436-.538.299-.09.574-.561.85-1.346.275-.92.505-1.234.804-1.234.275 0 .436-.158.436-.427 0-.65.252-1.144.55-1.144.345 0 .827-.943.827-1.593 0-.27.23-.516.574-.65.322-.113.574-.382.574-.63 0-.224.276-.627.597-.92.322-.268.735-.852.919-1.3.207-.427.55-.83.804-.898.252-.067.436-.314.436-.628 0-.315.206-.584.574-.74.344-.158.574-.45.574-.741 0-.27.183-.516.459-.584.23-.067.505-.291.574-.516.069-.224.482-.763.918-1.211.414-.45.827-.988.896-1.212.092-.247.39-.561.712-.718.298-.157.574-.494.62-.763.046-.292.275-.494.574-.539.344-.044.574-.291.665-.628.07-.292.299-.538.483-.538.183 0 .436-.292.55-.651.138-.404.46-.718.804-.785.322-.09.597-.36.69-.696.09-.404.298-.56.688-.56.39 0 .574-.158.689-.54.069-.291.367-.628.689-.785.298-.134.55-.404.55-.583 0-.202.3-.471.69-.584.367-.134.734-.426.803-.65.069-.247.367-.494.62-.584.275-.09.827-.426 1.194-.785.39-.359.895-.718 1.102-.785a.927.927 0 0 0 .528-.561c.092-.247.436-.494.827-.584.367-.067.711-.314.78-.538.092-.247.299-.427.505-.427.207 0 .643-.291 1.01-.65.345-.36.988-.786 1.447-.943.505-.18.827-.448.827-.673 0-.224.252-.449.62-.538.344-.068.757-.337.918-.561.16-.225.643-.472 1.102-.539.482-.09.942-.381 1.171-.695.207-.315.505-.561.666-.561.436 0 1.47-.584 1.975-1.1.252-.27.597-.471.78-.471.184 0 .781-.247 1.355-.561.574-.314 1.194-.561 1.378-.561.183 0 .482-.18.643-.426.16-.225.803-.584 1.423-.786.62-.202 1.4-.583 1.768-.807.344-.247.85-.45 1.125-.45.528 0 1.837-.65 1.837-.92 0-.089.482-.224 1.056-.313 1.378-.202 1.7-.314 1.7-.651 0-.314 1.078-.673 2.732-.92.711-.112 1.033-.292 1.102-.583.091-.337.344-.427 1.194-.427 1.745 0 2.732-.246 2.847-.673.092-.314.459-.426 1.79-.56 1.975-.18 3.422-.494 3.422-.764 0-.18 2.158-.538 4.821-.807.69-.068 1.883-.315 2.64-.561 1.287-.404 2.136-.427 13.02-.427 11.158-.022 11.71 0 12.857.427z"/><path fill="#fff" d="M502.504 17.041c-.184.067-.528.292-.758.471-.298.247-1.079.36-2.984.427-3.238.112-3.95.224-4.432.673-.252.246-1.148.47-2.548.65-1.608.202-2.296.382-2.687.74-.367.337-.941.494-2.158.607-1.194.112-1.745.269-1.952.538-.16.225-.757.449-1.354.539-1.08.157-2.365.673-2.595 1.032-.069.09-.643.247-1.286.336-.666.09-1.217.292-1.286.472-.137.336-1.492.987-2.066.987-.16 0-.528.202-.804.426-.252.247-.872.516-1.354.584-.505.09-.965.269-1.056.426-.115.157-.597.471-1.103.673-.94.404-1.148.516-2.296 1.257-.367.246-.918.448-1.194.448-.367 0-.528.135-.528.45 0 .313-.16.448-.482.448-.275 0-.941.359-1.492.785-.528.427-1.171.786-1.424.786-.321 0-.505.18-.55.493-.047.36-.253.539-.69.584-.321.045-.895.314-1.217.628-.344.314-.895.673-1.193.785-.322.112-.62.404-.69.651-.068.247-.367.516-.688.583-.299.09-.666.382-.758.674-.16.381-.39.538-.803.538-.414 0-.574.112-.574.449a.717.717 0 0 1-.39.606c-.23.067-.598.291-.827.47-.368.315-.368.36-.023.764.367.381 1.745.404 36.46.404 19.839 0 36.21-.09 36.37-.202.505-.292.253-1.257-.344-1.324-.344-.045-.574-.292-.666-.628-.092-.292-.321-.539-.528-.539-.505 0-.941-.426-.941-.92 0-.202-.253-.426-.551-.516-.345-.09-.597-.314-.643-.65-.046-.315-.253-.517-.574-.562a.806.806 0 0 1-.62-.605c-.07-.292-.345-.606-.62-.674-.253-.09-.574-.381-.712-.673-.138-.291-.482-.583-.78-.65-.345-.09-.552-.315-.552-.584 0-.27-.23-.538-.528-.65-.275-.113-.666-.472-.826-.786-.184-.314-.46-.583-.643-.583-.161 0-.437-.247-.574-.561-.138-.314-.505-.629-.804-.696-.321-.09-.528-.314-.528-.56 0-.248-.184-.517-.39-.584-.505-.202-2.365-1.997-2.365-2.311 0-.113-.253-.27-.551-.36-.345-.067-.597-.314-.643-.605-.046-.314-.253-.516-.574-.561-.276-.045-.574-.27-.643-.494-.069-.247-.413-.56-.758-.718-.344-.157-.643-.516-.689-.808-.046-.314-.298-.538-.642-.628-.345-.09-.552-.292-.552-.56 0-.315-.16-.427-.574-.427-.413 0-.597-.157-.711-.561l-.138-.561-2.801.022c-1.516 0-2.94.068-3.123.135zM519.036 17.54c0 .313.206.56.574.695.321.112.574.359.574.538 0 .18.275.472.643.629.344.157.642.516.688.807.046.315.299.539.643.629.322.09.551.291.551.538 0 .247.23.45.551.539.322.067.62.336.712.583.069.247.413.561.758.718.344.157.643.516.689.786.046.291.298.538.643.605.344.09.55.315.55.584 0 .291.161.449.46.449.252 0 .574.246.758.583.16.314.55.696.872.83.298.157.574.494.62.763.046.314.275.516.574.561.321.045.528.247.574.561a.65.65 0 0 0 .574.56c.275.046.62.315.758.607.16.291.505.628.803.785.299.135.574.494.62.763.046.359.23.494.643.494.436 0 .551.112.551.56 0 .45.115.562.574.562.413 0 .597.157.712.56.069.315.413.696.758.853.321.157.62.494.666.786.045.359.23.493.62.493s.573.135.62.494c.045.336.252.538.573.583a.775.775 0 0 1 .62.606c.092.314.46.718.827.898.413.201.689.516.689.785 0 .336.16.449.574.449.459 0 .574.112.574.538 0 .404.137.584.505.628.275.045.643.315.803.606.138.314.529.696.85.853.344.18.597.494.597.74 0 .337.16.45.574.45.46 0 .574.111.574.56 0 .404.115.561.46.561.252 0 .573.247.757.583.16.315.551.696.872.83.299.158.574.517.62.786.046.359.23.494.643.494.436 0 .551.112.551.56 0 .405.115.562.46.562.252 0 .596.269.78.65.207.36.597.696.919.786.344.09.597.314.642.65.046.314.253.516.597.561.368.045.506.225.506.606 0 .382.137.561.505.606.298.045.643.337.803.65.161.337.551.674.873.741.413.112.574.292.574.696 0 .448.115.56.574.56.46 0 .574.113.574.54 0 .403.138.56.505.627.298.045.666.337.827.674.16.359.55.695.872.762.39.09.551.292.551.674 0 .426.115.538.574.538.46 0 .574.112.574.539 0 .404.138.583.505.628.276.045.643.314.804.606.138.314.528.695.85.852.344.18.596.494.596.74 0 .337.161.45.574.45.46 0 .574.112.574.538 0 .404.138.584.506.628.275.045.642.315.803.606.138.314.528.696.85.853.344.18.597.494.597.74 0 .292.16.45.459.45.298 0 .505.201.597.56.115.471.275.561.918.561h.78V53.33c0-15.573-.022-15.887-1.17-16.134-.505-.112-.666-.269-.666-.695 0-.427-.115-.539-.574-.539-.321 0-.574-.09-.574-.224 0-.112-.436-.494-.964-.808-.551-.337-1.194-.853-1.447-1.144-.252-.27-.643-.516-.826-.516-.207 0-.483-.247-.62-.561-.184-.382-.46-.561-.827-.561-.367 0-.62-.157-.712-.45a.662.662 0 0 0-.597-.448c-.23 0-.436-.112-.436-.224 0-.135-.23-.225-.528-.225-.298 0-.597-.202-.735-.493-.137-.27-.505-.561-.85-.651-.344-.09-.849-.381-1.147-.65-.299-.27-.827-.54-1.171-.607-.345-.067-.735-.314-.85-.516-.115-.224-.689-.538-1.286-.695-.574-.18-1.148-.494-1.262-.696a.817.817 0 0 0-.666-.404c-.23 0-.505-.112-.574-.224-.07-.135-.414-.224-.735-.224-.367 0-.62-.158-.689-.427-.069-.291-.39-.449-1.125-.56-.55-.068-1.4-.382-1.86-.674-.482-.292-1.308-.606-1.86-.695-.55-.09-1.17-.337-1.377-.561-.436-.45-1.86-.898-2.847-.898-.345 0-.804-.18-1.033-.404-.253-.247-1.08-.516-2.113-.673-.941-.157-1.814-.426-1.951-.606-.138-.18-1.194-.471-2.503-.673-1.263-.18-2.411-.494-2.618-.673-.183-.18-.344-.36-.367-.36-.023-.022-1.492-.089-3.26-.179-2.503-.112-3.399-.224-4.018-.56-.574-.292-1.447-.45-3.031-.54-2.181-.089-2.25-.089-2.25.382zM447.95 46.08c-.413.113-.895.45-1.102.764-.207.314-.528.56-.712.56-.207 0-.344.225-.344.562 0 .404-.115.56-.437.56-.298 0-.459.203-.574.674-.091.448-.321.763-.711.897-.345.135-.574.382-.574.651a.665.665 0 0 1-.414.583c-.436.113-.964.988-.964 1.571 0 .18-.253.494-.574.696-.321.202-.574.493-.574.673 0 .157-.207.493-.482.74-.551.494-1.125 1.504-1.125 1.952 0 .157-.253.472-.574.673-.322.202-.574.584-.574.853 0 .27-.253.74-.551 1.055-.299.314-.62.897-.712 1.279-.069.404-.276.718-.46.718-.16 0-.527.606-.803 1.346-.275.74-.574 1.346-.666 1.346-.23 0-.712 1.167-.712 1.728 0 .292-.137.583-.321.65-.321.135-.689.876-.918 1.908-.07.314-.39.942-.69 1.391-.32.449-.642 1.28-.734 1.84-.069.584-.275 1.1-.46 1.167-.412.157-.78 1.301-.78 2.446 0 .785-.115 1.054-.55 1.324-.46.291-.552.583-.69 2.064-.069.942-.23 1.795-.367 1.862-.367.225-.918 1.75-.918 2.536 0 .965-.483 3.366-.712 3.523-.322.224-.666 2.804-.666 5.048 0 1.638-.092 2.379-.345 2.715-.505.65-.413 1.369.207 1.773.528.336.597.292 4.983-3.927 2.456-2.356 4.982-4.78 5.602-5.34a34.355 34.355 0 0 0 1.86-1.84 29.937 29.937 0 0 1 1.722-1.705c.55-.516 1.768-1.683 2.686-2.58 1.814-1.818 1.768-1.773 3.352-3.277.597-.606 1.539-1.503 2.067-2.042a197.968 197.968 0 0 1 4.179-4.128c.252-.202.872-.808 1.4-1.347a61.057 61.057 0 0 1 2.113-1.974c.642-.561 1.17-1.122 1.17-1.257 0-.134.253-.359.575-.493.321-.135.574-.404.574-.561 0-.18.252-.427.55-.584.3-.157.69-.538.85-.83.16-.292.413-.538.551-.538.138 0 .39-.247.551-.539.161-.292.551-.65.85-.785.298-.135.55-.382.55-.539 0-.18.253-.426.552-.583.298-.157.666-.539.826-.808.161-.292.483-.583.735-.628a.884.884 0 0 0 .574-.561c.046-.247.368-.561.666-.696.299-.134.551-.381.551-.538 0-.18.253-.427.551-.584.299-.157.689-.538.85-.83.16-.292.413-.538.597-.538.16 0 .298-.09.298-.202 0-.225 2.296-2.491 2.526-2.491.092 0 .298-.247.46-.561.16-.314.39-.56.504-.56.276 0 .873-.584.873-.854 0-.112.252-.336.574-.493.321-.157.574-.404.574-.561 0-.135.298-.427.666-.628.39-.225.734-.584.826-.808.069-.225.345-.471.597-.539.253-.067.528-.314.597-.56.046-.248.344-.562.643-.719.643-.336.551-.74-.253-1.1-.711-.313-28.287-.313-29.389 0z"/><path fill="#fff" d="M579.054 46.754c-.114.18-.252 12.027-.321 28.138l-.115 27.8-.964-.83c-.528-.47-1.332-1.39-1.768-2.02-1.102-1.615-1.837-2.243-3.697-3.14-1.217-.584-1.951-1.167-3.008-2.312-.78-.852-1.63-1.974-1.882-2.468-.276-.516-1.171-1.526-2.02-2.244-.828-.74-2.389-2.109-3.422-3.074-1.056-.942-2.112-1.727-2.365-1.727-.735 0-3.674 2.198-4.57 3.41-.55.74-1.515 1.548-2.8 2.401a89.918 89.918 0 0 0-2.71 1.795c-.39.292-.872.471-1.056.404-.184-.067-.712-.673-1.148-1.324-2.135-3.119-5.556-5.924-7.53-6.17-.827-.113-1.218-.427-3.56-2.872-1.446-1.504-2.962-3.187-3.375-3.725-.941-1.28-1.056-1.369-3.49-2.603-2.503-1.279-6.911-4.465-8.541-6.17-.643-.696-1.676-1.975-2.25-2.85-.919-1.391-1.148-1.593-1.745-1.593-.873 0-2.756 1.705-5.832 5.295-2.434 2.827-3.95 4.218-6.085 5.61-2.158 1.39-5.625 5.183-8.495 9.244-3.766 5.296-4.248 5.879-7.279 8.661-3.145 2.85-5.327 4.398-6.245 4.398-.62 0-2.572-1.054-2.893-1.548-.069-.157-.872-.74-1.768-1.301-.895-.584-2.801-2.11-4.248-3.411-1.446-1.301-2.984-2.648-3.444-3.007-1.607-1.189-3.1-.65-4.27 1.57-.597 1.145-1.516 2.133-4.822 5.229-3.513 3.298-4.592 4.174-7.784 6.215-3.214 2.065-5.097 2.985-5.418 2.648-.07-.045-.092-3.702-.092-8.122 0-6.642-.069-8.19-.345-8.998-.275-.74-.482-.943-.895-.943-.321 0-.574.18-.666.427-.069.247-.39.583-.689.785-.321.202-.574.516-.574.696 0 .18-.092.336-.23.336-.275 0-2.525 2.2-2.525 2.468 0 .135-.115.225-.253.225-.321 0-.895.56-.895.875 0 .134-.069.247-.184.247-.092 0-.643.47-1.217 1.054-.597.606-2.709 2.67-4.706 4.6-2.021 1.952-3.743 3.635-3.88 3.77-.116.112-.46.449-.758.718-3.284 3.141-3.582 3.523-3.973 4.69-.298.852-.344 1.278-.16 1.48.137.157.321 1.885.436 3.815.207 3.747.321 4.622.78 5.34.322.494.506 1.593.712 4.263.07.988.207 1.885.276 2.02.092.112.16.516.184.852.045.36.183.763.321.943.16.18.207.404.138.538-.092.113.023.382.23.584.55.538.826 1.907.39 1.907-.414 0-.276.494.183.628.253.068.253.023-.023-.18-.298-.224-.298-.246 0-.179.184.068.483.36.62.673.161.315.437.696.62.83.184.158.528.966.735 1.818.275 1.032.551 1.57.804 1.638.298.067.436.449.55 1.369.115.83.276 1.256.483 1.256.436 0 .78.74.78 1.683 0 .606.115.853.414.943.39.09.964 1.189.964 1.862 0 .157.253.516.574.808.299.27.62.785.689 1.144.252 1.1.321 1.19.804 1.19.344 0 .459.156.459.583 0 .65.298 1.279.941 1.907.23.224.436.628.436.875s.161.449.345.449c.367 0 1.033 1.1 1.033 1.75 0 .224.253.539.574.673.39.18.574.449.574.83 0 .404.115.561.436.561.276 0 .528.247.666.629.115.359.551 1.01.942 1.436.39.449.711.897.711 1.01 0 .112.253.426.574.695.322.27.574.628.574.808 0 .449.804.673 1.332.381.574-.291.689-1.144.597-3.837a95.93 95.93 0 0 1-.069-2.804c0-.382.092-5.991.16-12.476l.162-11.803.62-.785c.872-1.122 2.433-2.176 5.234-3.545 1.332-.65 3.008-1.57 3.72-2.042.918-.606 1.584-.875 2.135-.875.437 0 .804.067.804.157 0 .695-4.179 5.318-7.393 8.235-3.467 3.096-3.743 3.971-1.378 4.285 1.516.202 2.778-.134 4.638-1.234 1.309-.785 1.906-.965 3.375-1.144 1.929-.224 2.733-.583 5.281-2.244 1.722-1.122 3.766-3.5 4.225-4.914.436-1.279 1.309-2.221 2.617-2.782 1.286-.561 1.447-.83 2.159-3.456.275-.987 1.768-2.737 2.342-2.737.183 0 .941.583 1.722 1.301.78.718 2.25 1.706 3.329 2.267a42.84 42.84 0 0 1 2.87 1.615c1.01.673 3.123 3.523 4.546 6.148.597 1.122 1.194 1.818 1.998 2.424.643.47 1.492 1.323 1.883 1.907.413.56 1.079 1.39 1.492 1.84l.78.785-.137-1.01c-.299-2.064-.85-3.343-2.112-4.734-1.171-1.257-1.7-2.289-1.378-2.603.092-.09.804.157 1.584.539 1.516.718 3.582 2.243 5.58 4.106 2.112 1.93 2.686 1.907 1.676-.068-1.24-2.356-2.595-3.365-8.932-6.574-1.102-.56-2.388-1.503-3.674-2.693-1.079-.987-2.939-2.445-4.132-3.23-2.848-1.84-6.36-4.623-6.544-5.184a1.515 1.515 0 0 0-.643-.673c-.276-.157-.78-.583-1.125-.987-.735-.853-1.791-1.347-2.549-1.145-.298.068-1.217.696-2.02 1.391-2.136 1.863-4.661 3.815-5.878 4.51-.919.517-1.4.629-3.513.719-2.25.134-2.526.18-3.238.762-.436.337-1.515 1.167-2.433 1.84-.896.674-1.722 1.324-1.791 1.459-.07.112-.482.224-.873.224-.964 0-2.09.561-3.536 1.75-.62.517-1.194.943-1.286.943-.091 0-.16-1.077-.16-2.379v-2.378l1.217-1.144c2.158-2.042 2.893-2.424 5.097-2.648 2.319-.224 3.765-.83 5.74-2.379 1.814-1.436 4.202-4.173 5.143-5.878.551-1.01 1.148-1.706 2.204-2.513 2.02-1.549 2.457-2.29 2.549-4.42.046-1.347.16-1.796.505-2.065.23-.18.482-.516.574-.74.069-.203.276-.382.436-.382.161 0 1.929 1.257 3.95 2.782 1.997 1.549 4.454 3.231 5.441 3.77 1.01.538 2.342 1.234 2.962 1.593 1.4.763 2.227 1.907 2.664 3.77.183.785.574 1.862.895 2.378.298.516.666 1.324.804 1.773.183.56.482.875.918 1.01.436.157.689.426.758.875.092.403.597 1.01 1.47 1.727.711.584 2.663 2.401 4.316 4.017 2.457 2.4 3.306 3.096 4.821 3.86 1.171.605 3.1 1.996 5.258 3.769 3.904 3.208 4.868 3.882 6.797 4.824 1.538.74 2.02.808 2.227.292.092-.247-.413-.898-1.584-2.065-.965-.964-1.86-1.952-1.998-2.221-.46-.875-.298-1.952.436-2.895.368-.47.896-1.48 1.148-2.243.551-1.571 1.286-2.334 2.824-2.872.781-.292 1.31-.674 1.768-1.302 1.194-1.615 1.562-3.007 1.86-6.956.16-2.02.368-3.882.46-4.15.114-.315.528-.584 1.124-.764 1.08-.314 1.608-.92 1.608-1.817 0-.382.137-.65.436-.74.253-.068.827-.427 1.286-.786 1.308-1.01 1.745-.898 3.191.808.69.808 1.906 2.02 2.733 2.67 2.319 1.862 3.558 3.545 4.293 5.834.253.785 1.355 3.253 2.801 6.372.873 1.818 2.411 3.837 2.94 3.837.436 0 .229-1.032-.391-1.907-.344-.494-1.01-2.02-1.47-3.388-.482-1.369-1.377-3.613-2.02-4.959-.643-1.346-1.171-2.58-1.171-2.737 0-.629-.873-1.818-2.847-3.837-1.194-1.19-2.365-2.648-2.664-3.254-.505-1.01-.94-3.702-.597-3.702.07 0 .919.538 1.906 1.167.965.65 2.916 1.75 4.34 2.423 1.928.92 3.122 1.683 4.707 3.029 3.581 3.007 7.37 7.068 7.783 8.347.161.471.643 1.481 1.08 2.266.436.786 1.101 2.558 1.469 3.927.436 1.593.987 2.984 1.492 3.814.46.719 1.08 1.908 1.378 2.67.321.786.895 1.706 1.4 2.2.483.448 1.057 1.054 1.286 1.368.414.539.414.539.299-.65-.07-.786-.528-2.065-1.309-3.703-1.125-2.356-1.722-4.465-2.158-7.517-.092-.762-.07-1.166.092-1.166.574 0 4.96 3.523 6.038 4.846.804 1.01 1.539 1.638 2.503 2.154.872.45 1.63 1.055 2.09 1.66.573.786 1.078 1.1 2.892 1.886 1.906.83 2.342.942 3.421.852 2.205-.18 1.952-.763-.85-1.93-1.63-.673-2.226-1.076-3.558-2.423-.872-.875-2.457-2.221-3.49-2.984-1.768-1.324-2.273-1.907-4.041-4.667-.643-1.01-1.447-1.503-3.605-2.222-1.4-.47-2.112-1.099-7.232-6.484-3.95-4.129-6.866-6.373-10.608-8.168-2.457-1.189-3.169-1.66-4.753-3.141-1.033-.965-2.204-1.93-2.594-2.132-1.516-.74-3.192-.247-4.248 1.28-.597.852-2.48 3.208-3.513 4.397-.436.471-1.47 1.145-2.755 1.75-1.125.516-2.228 1.077-2.411 1.234-.207.158-1.148 1.257-2.136 2.446-1.584 1.952-2.916 4.129-2.916 4.824 0 .404-2.066 2.177-3.329 2.895-.643.337-1.515.965-1.951 1.346-.781.696-4.363 2.805-4.776 2.805-.414 0-2.618-2.132-3.054-2.94-.643-1.256-.574-1.503.551-1.794 1.424-.382 2.227-.83 2.09-1.19-.07-.18.436-1.368 1.148-2.647 1.56-2.872 1.882-3.972 2.296-7.921.505-4.488.987-5.834 2.571-7.135.39-.337 1.148-1.234 1.676-2.02.896-1.346.942-1.503.942-3.164 0-2.176.574-3.612 1.882-4.622 1.057-.853 2.159-2.446 2.48-3.59.115-.426.299-1.19.436-1.683.138-.494.643-1.436 1.148-2.087.506-.65 1.125-1.75 1.401-2.445.276-.718.597-1.414.735-1.571.55-.65 1.354-.314 3.03 1.234 2.48 2.334 6.04 4.914 9.162 6.687 1.148.628 1.882 1.279 2.71 2.31.619.786 1.124 1.549 1.124 1.706 0 .18-.436.314-1.102.381-1.745.158-6.222 2.312-5.373 2.603.138.045.942-.022 1.768-.157 1.286-.18 1.768-.157 3.169.202.918.247 1.974.449 2.365.449 1.47 0 4.775.696 5.97 1.257 1.721.807 3.053 2.333 6.888 8.01 1.905 2.827 3.444 4.87 3.604 4.802.184-.045.253-.427.207-1.01-.115-1.167.069-1.19 1.998-.247 1.584.786 3.283 2.58 7.714 8.145 2.779 3.523 3.123 4.04 3.651 5.655.207.628.804 1.705 1.309 2.356a40.676 40.676 0 0 1 1.837 2.715c.895 1.503 1.584 1.952 1.584 1.077 0-.27-.16-.696-.345-.965-.298-.449-1.492-4.69-1.492-5.318 0-.471 1.378-.18 3.008.65a40.358 40.358 0 0 0 3.237 1.482c1.034.404 2.02 1.032 2.985 1.885 1.7 1.503 2.916 2.356 3.1 2.199.069-.068.115-.763.092-1.526-.023-1.818.321-2.222 1.837-2.222.964 0 1.102-.067 1.17-.516.046-.314.253-.516.575-.56.298-.046.574-.315.734-.741.115-.36.39-.65.597-.65.184 0 .46-.248.574-.562.115-.314.414-.65.62-.718.23-.09.643-.449.942-.785.298-.337.734-.628.987-.628.23 0 .436-.135.436-.315 0-.157.16-.448.367-.605.207-.158.46-.539.574-.808.115-.292.46-.628.781-.74.322-.113.574-.36.574-.562 0-.202.253-.448.574-.56.322-.113.689-.472.804-.786.138-.337.39-.56.666-.56.298 0 .482-.18.528-.495.046-.291.344-.65.711-.807.345-.157.62-.427.62-.606 0-.157.299-.404.666-.516.437-.157.712-.404.758-.763.046-.337.253-.539.597-.584.298-.044.505-.224.505-.47 0-.494.436-.92.964-.92.253 0 .414-.158.414-.427 0-.27.252-.516.689-.673.459-.157.688-.382.688-.696 0-.291.207-.538.574-.673.368-.135.597-.404.62-.718.092-1.48-.115-6.597-.298-6.776-.115-.135-.207-.449-.207-.718 0-.27-.115-.539-.252-.584-.161-.045-.299-.92-.368-2.199-.092-1.997-.39-3.635-.78-4.15-.092-.135-.322-1.235-.552-2.469-.206-1.234-.505-2.356-.665-2.468-.414-.314-.827-1.616-.827-2.58 0-.584-.16-.943-.574-1.302-.436-.381-.574-.718-.574-1.391 0-.875-.275-1.57-.85-2.2-.16-.156-.298-.47-.298-.672 0-.853-.505-2.042-.895-2.177-.322-.09-.483-.426-.597-1.211-.115-.853-.276-1.145-.69-1.324-.435-.202-.55-.449-.62-1.212-.045-.74-.183-1.01-.573-1.19-.299-.111-.528-.38-.528-.605 0-.56-.505-1.593-.942-1.907-.206-.157-.459-.539-.528-.853a3.294 3.294 0 0 0-.666-1.144c-.275-.314-.55-.83-.62-1.167-.068-.337-.344-.696-.642-.83-.299-.135-.506-.427-.506-.718 0-.292-.091-.516-.23-.516-.114 0-.229-.135-.229-.292 0-.157-.252-.516-.574-.785-.321-.27-.574-.696-.574-.943 0-.291-.206-.493-.574-.583-.39-.09-.574-.292-.574-.628 0-.27-.206-.629-.459-.808-.253-.18-.46-.449-.46-.584 0-.134-.413-.673-.918-1.189-.505-.493-.918-1.122-.918-1.369 0-.314-.16-.448-.482-.448-.253 0-.666-.225-.873-.494-.344-.381-.436-.426-.62-.157zm-17.197 42.274c1.125.875 4.615 5.61 5.12 6.91.505 1.347.62 1.437 2.664 2.446 2.548 1.234 3.168 1.75 4.34 3.5.94 1.414 2.662 3.142 4.132 4.197l.643.448-.069 3.77-.069 3.792-1.056-.808c-.574-.426-1.7-1.525-2.48-2.423-2.02-2.311-7.118-6.53-10.975-9.043-1.79-1.166-3.421-2.356-3.628-2.625-.574-.83-1.263-3.276-1.263-4.532.023-.629.161-1.75.345-2.491.184-.74.344-1.862.344-2.49 0-1.145.322-1.75.781-1.504.138.067.666.471 1.17.853zM599.397 108.773c0 .202-.252.449-.574.561-.321.112-.689.471-.85.786-.137.314-.504.628-.803.695-.367.09-.528.292-.528.673 0 .427-.115.539-.574.539-.436 0-.574.112-.574.471 0 .337-.092.426-.367.337-.528-.202-1.47.09-1.47.448 0 .18-.138.314-.275.314-.184.023-.115.135.137.337.483.36.299.785-.344.785-.321 0-.436.157-.436.561 0 .45-.115.561-.551.561-.39 0-.597.157-.69.561-.09.314-.39.673-.688.786-.321.112-.62.404-.712.65-.069.27-.39.539-.711.606-.39.09-.551.292-.551.673 0 .427-.115.539-.552.539-.39 0-.597.157-.688.538-.07.314-.345.629-.597.696-.253.09-.414.247-.345.359.23.337-.803 1.458-1.745 1.862-.482.225-.895.494-.895.606 0 .404-1.791 1.997-2.273 1.997-.368 0-.528.18-.62.65-.092.382-.368.741-.666.876-.299.135-.597.426-.666.673-.092.224-.39.539-.689.673-.298.135-.62.449-.712.696-.068.27-.39.538-.711.606-.345.09-.551.291-.551.56 0 .247-.23.517-.551.651-.299.113-.62.404-.712.651-.069.247-.345.516-.597.583-.253.09-.551.382-.666.696-.115.292-.482.583-.804.673-.367.09-.574.292-.574.561 0 .247-.23.516-.55.628-.3.113-.598.427-.667.674-.068.246-.367.56-.688.673-.322.134-.643.426-.735.673-.069.27-.39.538-.712.606-.344.09-.55.291-.55.56 0 .247-.23.517-.552.651-.298.113-.62.382-.689.629-.092.224-.39.538-.689.673-.298.134-.62.449-.711.695-.07.247-.322.516-.551.584-.23.067-.529.381-.666.673-.138.314-.437.56-.62.56-.184 0-.46.248-.597.54-.138.291-.505.65-.78.762-.3.135-.598.449-.69.696-.069.247-.344.516-.574.583-.23.068-.505.337-.574.584-.092.224-.252.426-.367.426-.299 0-3.306 2.962-3.65 3.568-.139.269-.391.47-.598.47-.183 0-.436.225-.574.517-.137.292-.459.606-.734.718a1.78 1.78 0 0 0-.735.74c-.115.27-.39.539-.597.606-.207.068-.482.382-.62.673-.138.315-.436.561-.62.561-.207 0-.46.247-.574.561-.115.314-.482.673-.804.786-.321.112-.574.359-.574.56 0 .18-.252.472-.574.606-.321.135-.643.494-.711.786-.092.314-.322.516-.574.516-.322 0-.437.157-.437.673v.673l15.131-.045 15.131-.067.919-.987c.528-.561 1.125-1.347 1.354-1.75.23-.404.505-.741.643-.741s.368-.314.505-.696c.161-.381.482-.74.735-.807.321-.068.482-.314.482-.651s.138-.539.345-.539c.206 0 .597-.516.918-1.234.299-.673.666-1.234.804-1.234.137 0 .367-.314.482-.673.138-.381.344-.673.459-.673.276 0 .895-1.234.895-1.795 0-.27.23-.561.574-.718.322-.135.575-.449.575-.673 0-.472.642-1.549 1.079-1.818.16-.09.298-.381.298-.606 0-.246.184-.605.436-.83.574-.538.942-1.279.942-1.862 0-.27.252-.696.574-.943.367-.291.574-.65.574-1.077 0-.359.252-.92.55-1.279.414-.47 1.287-2.894 1.287-3.545 0-.022.206-.112.459-.18.39-.09.459-.314.459-1.368 0-.696.092-1.257.23-1.257.321 0 .85-1.324 1.033-2.558.092-.583.367-1.458.62-1.907.275-.449.62-1.57.757-2.49.161-.92.46-2.2.69-2.805.229-.629.459-1.257.504-1.436.046-.202.161-.225.368-.068.206.18.252 0 .183-.763-.022-.56.046-1.121.161-1.279.16-.18.16-.403.046-.605-.321-.494-.275-1.84.115-2.917.23-.629.344-1.795.344-3.389v-2.445h-.574c-.367 0-.574.134-.574.336z"/><path fill="#fff" d="M477.753 119.05c.092.942.344 1.84.85 2.782.39.763.94 2.02 1.262 2.805 1.01 2.648 2.181 4.645 2.962 5.116.413.247.804.449.918.449.345 0 .138-.808-.436-1.795-.344-.561-.78-1.526-1.01-2.132-.643-1.773-3.215-7.337-3.72-8.033-.711-.987-.941-.763-.826.808z"/><path fill="#29a3a3" d="M426.115 130.045c0 .157.23.291.505.291s.505-.134.505-.291c0-.18-.092-.225-.276-.068-.16.135-.344.135-.505-.022-.138-.135-.23-.112-.23.09z"/><path fill="#fff" d="M455.458 137.36c-.275.493-.367 27.217-.115 28.519.092.448.368.807.69.942.343.157.55.449.55.785 0 .404.115.516.551.516.368 0 .62.158.712.45.069.246.275.448.436.448.16 0 .78.404 1.355.898.574.493 1.194.897 1.378.897.183 0 .413.247.482.561.114.404.298.56.711.56.299 0 .666.18.781.405.115.224.689.628 1.263.92.574.27 1.056.65 1.056.808 0 .18.345.381.78.448.483.09.827.314.896.561.07.247.414.45.942.539.505.09.964.359 1.194.695.206.315.597.561.872.561.253 0 .827.292 1.263.651.436.36 1.079.718 1.446.785.345.068.873.337 1.148.584.276.247.758.449 1.057.449.298 0 1.01.291 1.584.673.55.359 1.102.673 1.24.673.597 0 2.043.583 2.043.83 0 .157.597.404 1.378.561.758.135 1.377.359 1.377.449 0 .09.207.18.437.18.252 0 .505.09.574.201.092.112.666.27 1.286.36.642.089 1.285.291 1.446.426.39.381 1.515.718 3.559 1.054.895.157 1.653.337 1.653.427 0 .291 1.791.673 3.215.673.78 0 1.699.134 2.02.314.344.18 1.033.426 1.538.538 1.194.314 7.968.763 8.473.584.23-.09.367-.404.367-.786 0-.538-.092-.65-.55-.65-.391 0-.598-.157-.69-.561a1.001 1.001 0 0 0-.711-.696c-.345-.09-.643-.359-.712-.673-.092-.314-.368-.606-.689-.673-.321-.09-.551-.314-.551-.539 0-.224-.23-.448-.551-.538-.322-.068-.597-.36-.689-.673-.069-.314-.367-.584-.712-.674a1.001 1.001 0 0 1-.712-.695c-.091-.337-.367-.628-.688-.696-.322-.09-.551-.314-.551-.538 0-.247-.23-.449-.574-.539a1.013 1.013 0 0 1-.712-.673.942.942 0 0 0-.689-.673 1.011 1.011 0 0 1-.689-.696c-.092-.336-.367-.628-.689-.695-.321-.09-.55-.314-.55-.539 0-.224-.23-.448-.552-.538-.321-.068-.597-.36-.689-.673-.068-.315-.367-.584-.711-.674a1.001 1.001 0 0 1-.712-.695c-.092-.404-.299-.561-.689-.561-.436 0-.55-.112-.55-.539 0-.381-.162-.583-.575-.673a1.013 1.013 0 0 1-.712-.673.942.942 0 0 0-.689-.673 1.011 1.011 0 0 1-.688-.696c-.092-.403-.299-.56-.69-.56-.435 0-.55-.113-.55-.562 0-.403-.16-.583-.551-.695-.299-.067-.643-.36-.78-.65-.139-.293-.46-.584-.713-.674-.275-.067-.55-.381-.62-.696-.091-.381-.298-.538-.688-.538-.437 0-.551-.112-.551-.539 0-.381-.161-.583-.529-.673-.298-.067-.665-.359-.803-.673-.138-.292-.46-.606-.712-.695-.276-.068-.551-.382-.62-.696-.092-.381-.298-.539-.689-.539-.436 0-.55-.112-.55-.538 0-.382-.162-.583-.529-.673-.298-.068-.666-.36-.803-.673-.138-.292-.46-.606-.69-.674-.252-.09-.527-.403-.596-.695-.115-.404-.299-.561-.712-.561-.46 0-.574-.112-.574-.539 0-.381-.16-.583-.551-.673-.322-.067-.597-.359-.689-.673-.069-.314-.367-.583-.712-.673a1.001 1.001 0 0 1-.711-.696c-.092-.404-.299-.56-.69-.56-.436 0-.55-.113-.55-.562 0-.403-.161-.583-.574-.695-.345-.09-.643-.36-.712-.65-.069-.293-.367-.584-.666-.652-.298-.067-.574-.359-.666-.695-.115-.404-.298-.561-.712-.561-.459 0-.574-.112-.574-.561 0-.404-.16-.583-.574-.696-.344-.09-.643-.359-.711-.65-.07-.292-.368-.584-.69-.651a1.011 1.011 0 0 1-.688-.696c-.092-.404-.299-.56-.689-.56-.413 0-.55-.113-.55-.517 0-.359-.208-.583-.69-.763-.367-.134-.689-.403-.689-.605 0-.18-.298-.494-.688-.696-.414-.202-.69-.516-.69-.785 0-.337-.16-.45-.573-.45-.46 0-.574-.111-.574-.56 0-.404-.115-.561-.46-.561-.252 0-.596-.27-.803-.65-.184-.36-.551-.719-.804-.808-.252-.068-.528-.382-.597-.696-.091-.36-.298-.539-.62-.539-.252 0-.642-.157-.872-.359-.367-.314-.413-.314-.643.113zM568.286 166.103c-.092.157-11.457.224-35.084.224l-34.946-.022-.068.897c-.07.786 0 .898.459.965.344.045.55.247.597.561a.8.8 0 0 0 .597.651c.275.067.62.404.757.785.161.404.414.651.712.651.299 0 .505.202.597.539.092.336.345.583.643.628.321.045.551.27.643.628.092.36.321.583.643.628.298.045.505.225.505.472 0 .493.436.92.964.92.253 0 .414.157.414.448 0 .292.23.539.574.673.321.113.688.472.803.786.115.314.368.56.551.56.184 0 .482.27.643.607.16.359.528.65.827.695.298.045.505.225.505.494 0 .247.252.493.689.65.459.135.688.382.688.674 0 .291.184.516.529.583.298.09.642.426.78.808.16.404.414.65.712.65.253 0 .505.202.574.45.069.246.39.538.712.672.367.135.597.382.597.674 0 .269.206.493.55.583.345.067.62.337.69.673.091.36.321.539.62.539.275 0 .528.18.597.448.068.27.55.629 1.125.898.826.337 1.24.381 2.227.247.643-.112 2.64-.27 4.408-.36 2.664-.134 3.421-.246 4.432-.695.85-.381 1.63-.538 2.617-.538 1.47 0 3.1-.36 3.559-.808.138-.135 1.08-.382 2.043-.516.988-.135 1.86-.337 1.93-.427.206-.314 1.308-.673 2.433-.852.62-.09 1.286-.337 1.47-.539.183-.202.757-.448 1.262-.538 1.125-.18 2.25-.606 2.457-.898.069-.112.666-.336 1.309-.516.643-.157 1.377-.493 1.63-.74.252-.247.872-.516 1.378-.584.55-.09 1.033-.314 1.148-.538.137-.247.62-.471 1.148-.561.597-.09 1.056-.337 1.262-.65.207-.315.781-.607 1.493-.786.85-.225 1.148-.404 1.148-.696 0-.291.23-.471.735-.583.413-.067.918-.337 1.125-.561.206-.247.711-.494 1.102-.561.482-.09.826-.337.941-.65.115-.27.46-.562.78-.652.322-.067.69-.336.827-.583.138-.247.643-.538 1.148-.673.551-.135.942-.404 1.034-.673.091-.247.39-.516.688-.584.299-.067.62-.336.712-.583.07-.247.436-.539.804-.673.367-.112.666-.36.666-.516 0-.157.367-.494.803-.763.551-.314.804-.628.804-.987 0-.898-1.309-1.706-1.722-1.055z"/><g style="fill:#fff"><path d="m1265 1339-60-30-205 6c-233 8-326-3-484-56-183-61-303-148-352-253-42-91-28-200 36-267 76-80 201-72 302 19 48 43 94 131 77 147-8 7-15 4-23-9-6-10-23-37-37-61-97-156-299-130-299 39 0 180 268 356 605 396 91 11 275 7 311-7 10-3 2-19-25-51-60-72-139-200-246-397-130-241-213-364-310-460-153-153-304-196-386-109-56 59-4 158 83 159 24 0 59-4 78-9l35-8-22 22c-17 19-35 24-95 27-62 4-80 1-117-19-82-43-106-109-64-180 60-103 268-115 437-25 78 41 176 133 236 222 26 38 62 83 79 99 30 29 37 30 149 37 171 11 300 56 428 153 174 130 207 309 85 449-37 42-141 97-183 97-35 0-35 10-2 41 28 26 49 59 37 58-4 0-35-14-68-30zm53-119c143-65 187-180 122-316-29-60-137-170-205-208-76-42-211-84-297-92-43-4-78-3-78 1 0 24 312 567 349 608 29 32 51 33 109 7zm-288-220c-24-39-45-69-47-67-2 3 15 36 39 75 23 39 44 69 46 67s-15-35-38-75zM832 627c-3-27-12-43-33-58-16-11-29-17-29-13 0 9 61 116 65 112 1-2 0-20-3-41zM2433 1085c-65-52-200-295-266-481-69-193-74-364-12-388 58-22 141 6 195 64l37 40 12-40c15-50 49-74 90-65 44 9 109 61 128 100 9 19 20 35 24 35 3 0 9-21 12-47 4-37 12-54 37-76 35-32 55-30 107 9 62 47 167 234 144 257-13 13-9 18-60-75-53-97-124-178-141-161-28 27 20 174 96 295 13 21 24 40 24 43 0 11-47 4-86-14-41-19-54-36-142-187-64-110-129-158-162-119-28 34 21 158 110 276 81 109 153 142 220 104 40-23 53-19 35 9-41 62-154 72-239 22-65-38-105-89-176-226-97-185-165-245-215-190-22 24-24 87-6 143 7 21 45 82 85 135 114 153 154 216 203 318 56 115 65 176 33 217-27 33-46 34-87 2zm62-107c-16-68-49-149-87-216-39-69-151-209-155-196-3 10 100 251 151 351 30 60 73 113 91 113 11 0 11-9 0-52zm-285-463c-12-19-24-35-27-35-8 0 3 59 17 95l12 30 10-27c8-22 5-35-12-63zm519-77c-15-40-28-81-29-90 0-24-17-23-25 1-3 12 3 38 16 63 22 43 57 98 64 98 1 0-10-33-26-72zM2079 715c-38-20-48-57-52-175-3-119-19-162-84-226-31-32-100-71-108-62-1 2 15 73 36 158 23 94 38 180 39 218v62h-107l5-49c9-94-51-239-138-335-62-67-80-71-80-18 0 66 33 148 113 281l21 34-42-5c-59-8-96-39-143-121-101-174-147-225-194-213-21 5-25 12-25 44 0 72 125 278 200 332 50 36 82 40 130 19 24-11 45-17 48-14 4 3-9 20-26 38-30 30-37 32-100 32-48-1-78-7-108-22-62-33-131-109-171-190-30-61-37-88-41-153-5-89 9-125 53-136 48-12 143 53 192 132 10 16 12 12 12-32 1-69 28-104 79-104 48 1 90 36 137 115l36 60-7-67c-6-62-5-68 19-92 51-51 139-22 206 67 48 64 63 93 107 210 78 204 77 257-7 212zm-244-285c-15-60-30-110-35-110-21 0-14 73 13 140 15 39 31 95 35 123l7 52 3-47c2-27-8-95-23-158zm-461 100c-26-38-48-70-50-70s2 13 7 29c9 26 74 111 85 111 2 0-17-31-42-70zm211-96c-14-32-25-65-25-71 0-18-19-16-26 1-6 15 15 62 48 109 30 42 30 28 3-39z" style="fill:#fff" transform="matrix(.1315 0 0 -.1315 -5.277 200.013)"/></g><g style="fill:#fff"><path d="M995 1039c-27-18-38-20-115-12-234 22-443-1-569-65-104-52-185-153-197-244-10-83 57-168 145-183 101-17 211 64 211 155 0 28-13 19-59-44-22-29-53-59-70-66-65-26-154 19-167 86-14 74 83 202 196 259 97 49 144 57 354 62l200 5-37-48c-99-131-214-314-286-458-79-157-137-236-172-236-9 0-46 15-81 34-158 82-280 68-308-35-21-77 28-123 148-141 65-9 73-8 133 17 145 61 136 60 235 26 217-76 427-56 549 51 104 91 112 212 22 306-34 36-96 72-122 72-8 0-15 5-15 10 0 6 13 10 30 10 71 0 186 64 215 120 23 44 19 111-8 151-28 42-105 95-160 110-23 6-48 13-56 15-11 4-9 10 8 27 37 41 24 49-24 16zm83-105c66-33 92-65 92-116 0-47-11-71-54-116-51-55-81-66-196-72-140-7-141-22-6-70 116-41 170-82 186-140 32-118-95-255-255-275-65-9-172 6-281 39l-74 22 36 49c103 141 259 388 317 502 110 211 132 228 235 177zM324 253c42-21 76-42 76-48 0-12-101-53-151-61-106-17-184 79-111 136 36 29 87 22 186-27zM2395 841c-49-30-59-46-191-302-145-280-167-315-213-346-49-33-56-28-21 15 44 55 47 93 16 181-42 121-30 181 37 181 19 0 25 4 21 15-15 37-82 21-122-30-11-13-55-92-98-175-77-151-111-194-161-207-21-5-31 0-50 21-48 56-19 118 71 151 57 21 132 90 142 131 19 75-59 107-142 59-54-32-90-79-155-206-54-104-88-145-115-135-24 9-11 62 47 187 62 134 60 143-32 137l-68-5 26 34c30 39 34 86 9 111-28 28-49 4-72-87-12-48-52-145-93-228-39-80-70-147-68-149 2-3 16 5 31 17 28 22 73 103 107 193 23 64 40 80 73 72 41-10 41-39 1-110-44-78-56-153-31-191 30-45 98-27 154 42l31 38 1-28c1-71 80-96 181-57l52 19 29-24c54-46 181-29 246 32 41 39 45 40 37 11-18-61-19-58 28-58h44l1 49c1 70 41 148 107 210 62 59 113 85 133 69 33-28-6-78-81-100-68-20-95-95-63-172 18-43 51-66 94-66s102 33 127 70l20 29 15-42c13-34 21-43 44-45 33-4 93 34 136 86l28 34-1-35c-1-42 19-84 44-92 24-8 71 17 104 57 32 37 89 152 83 168-1 5-37-35-78-90-41-54-79-99-84-100-5 0-6 25-3 55 4 40 19 80 52 141 26 47 45 87 43 90-3 2-19 1-37-2-43-9-78-46-125-133-65-118-129-169-154-124-23 40 58 193 144 273 48 44 92 52 128 25 29-22 37-18 25 9-33 71-167 57-247-24-18-19-55-78-83-132-74-146-122-193-169-168-46 25-67 122-32 152 9 9 41 26 70 38 41 18 59 33 78 67 32 53 27 85-15 103-41 17-105-13-181-86-33-31-60-54-60-50 0 3 19 43 41 89 34 67 105 177 218 337 12 18 11 20-15 20-16 0-42-8-59-19zm-622-385c-22-44-73-84-132-101l-23-7 28 51c15 29 47 70 72 93 40 37 45 39 60 24 15-14 14-19-5-60zm160-33c13-133 9-179-16-209-15-17-30-25-40-21-16 6-37 64-37 103 0 37 64 194 79 194 4 0 11-30 14-67zm-84-251c-15-6-39 18-39 38 0 32 14 31 31-2 10-18 13-35 8-36z" style="fill:#fff" transform="matrix(.15503 0 0 -.15087 631.475 193.434)"/></g><path d="M-78.407 400.982c0-.266 1.57-3.211 3.489-6.544 3.354-5.826 3.496-5.974 3.7-3.848.285 2.975-2.302 7.892-5.03 9.558-1.187.725-2.159 1.1-2.159.834zM109.258 409.975c.845-4.641 2.02-9.213 2.904-11.296l.987-2.326.953 2.813c.89 2.623.855 3.012-.505 5.736-.803 1.607-2.176 3.78-3.05 4.828l-1.591 1.906zM175.875 430.808c-1.056-1.056-.318-5.51 1.582-9.538 2.168-4.597 5.952-10.836 6.338-10.45.128.128-.832 3.204-2.132 6.836-1.3 3.633-2.744 8.085-3.209 9.894-.817 3.183-1.629 4.208-2.579 3.258zM23.7 428.137c-.89-.89-.392-3.96 1.196-7.371 1.918-4.119 5.648-9.706 6.147-9.206.192.192-.883 3.638-2.39 7.657-1.506 4.02-2.739 7.77-2.739 8.336 0 1.035-1.395 1.403-2.215.584zM57.468 431.693c-.99-2.389.223-9.558 2.954-17.472 1.527-4.426 3.337-10.705 4.022-13.954.926-4.396 1.256-5.25 1.291-3.335.115 6.335-4.16 27.476-6.822 33.743-.802 1.887-1.02 2.04-1.445 1.018z" style="fill:#fff;stroke-width:.664464" transform="matrix(.9863 0 0 .9863 174.023 -269.295)"/><path d="M-74.554 388.449c-.746.897-1.332 1.927-2.08 2.819-.391.51-.724 1.063-1.134 1.559-.275.428-.422.915-.713 1.331-.243.264-.4.816-.526 1.016-.2.272-.4.545-.594.82-.126.268-.151.561-.178.851.393-.635-.147.05-.353.308a9.74 9.74 0 0 1-.71.768c-.14.51-.206.46-.438.788a5.65 5.65 0 0 1-.633.925c-.267.236-.488.396-.76.703-.582.752.08-.196-.438.391-.334.265-.729.44-1.087.703-.259.19-.123.122-.403.217l6.275 4.126c.338-.211.186-.107.46-.307.378-.249.815-.404 1.136-.738.14-.105.375-.289.496-.494.241-.265.575-.421.771-.734.239-.298.468-.596.645-.935.208-.188.495-.452.42-.726a40.4 40.4 0 0 1 .738-.825c.213-.276.476-.382.602-.73-.008-.155.015-.357-.03-.48a4.35 4.35 0 0 1 .511-.71c.261-.353.301-.779.573-1.129.278-.41.448-.848.68-1.283.401-.507.717-1.067 1.102-1.587.708-.936 1.295-1.964 2.104-2.828l-6.436-3.819z" style="fill:#fff" transform="matrix(.9863 0 0 .9863 174.023 -269.295)"/><path d="M-70.94 395.789c.839-.651 1.59-1.415 2.124-2.335.168-.304.303-.624.411-.954.12-.736-.185.025.182-.503.149-.224.276-.461.396-.702.002-.083.15-.399.085-.494-.02-.028-.042.065-.033.099.011.046.095-.01.142-.02.329-.046.427-.51.504-.794.122-.235.3-.44.478-.635.027-.035.062-.062.093-.092l-6.462-3.918-.099.128c-.236.309-.47.62-.66.96-.038.367.108.013-.173.242-.252.196-.602.51-.46.828a2.29 2.29 0 0 1-.276.543c-.25.216-.498.483-.396.83.024.258-.135.514-.222.749-.451.853-1.163 1.53-1.958 2.068l6.324 4zM-49.709 354.312a68.668 68.668 0 0 1 3.58-1.735c.643-.339 1.32-.616 1.909-1.047.294-.278.457-.639.653-.987.257-.467.235-.991.247-1.508.018-.63-.03-1.264.042-1.89.048-.263.14-.515.215-.772.021-.17.088-.352.18-.524.15-.321.307-.637.445-.963.158-.342.337-.671.547-.984.42-.505.83-1.009 1.168-1.575.378-.642.835-1.23 1.231-1.86.305-.374.537-.804.835-1.18.208-.325.381-.67.598-.988.18-.217.214-.53.385-.745.13-.141.13-.379.255-.515.085-.203.218-.29.342-.475.106-.131.163-.306.278-.427.177-.243.357-.489.549-.722.16-.14.245-.304.337-.49.006-.013-.01.029-.014.043.116-.178.204-.368.301-.555.115-.123.124-.336.245-.445.083-.062.032-.015.12-.17l-6.507-3.767-.005.005-.063.082c-.123.177-.2.356-.289.551-.096.154-.17.312-.272.46-.106.166-.14.295-.279.452-.183.242-.372.478-.564.713-.113.152-.236.3-.321.47-.103.153-.267.272-.33.457-.115.177-.183.352-.263.544-.147.248-.217.513-.35.769-.197.317-.394.634-.577.959-.277.415-.524.851-.804 1.265-.372.64-.815 1.234-1.203 1.865-.356.543-.788 1.01-1.213 1.498a4.91 4.91 0 0 0-.623 1.092c-.153.299-.295.602-.456.897a3.29 3.29 0 0 0-.312.717c-.032.29-.119.568-.173.854-.092.652.029 1.32-.034 1.978-.014.394-.01.806-.153 1.18-.125.262-.27.51-.49.707-.495.412-1.05.752-1.61 1.066a21.607 21.607 0 0 1-3.785 1.602l6.228 4.098zM-2.564 415.993c.273-.943.712-1.844 1.134-2.731.383-.811.814-1.597 1.222-2.395.328-.576.645-1.158.974-1.734.214-.34.406-.696.584-1.057.188-.395.352-.804.578-1.18.2-.382.502-.703.766-1.043.59-.604 1.174-1.219 1.82-1.764.583-.48 1.186-.927 1.758-1.42.292-.307.65-.56.896-.907a4.72 4.72 0 0 0 .503-.73c.16-.205.281-.438.442-.644.119-.2.26-.4.446-.542.166-.225.403-.366.573-.591.163-.203.347-.392.502-.59.123-.156.245-.311.386-.452.115-.056.21-.383.178-.223.133-.224.315-.41.477-.619.008.164.249-.464.225-.288-.005.042-.087.12-.044.12.05 0 .061-.08.092-.12.118-.092.224-.221.343-.361l-6.447-3.867c-.086.107-.2.17-.296.271a1.817 1.817 0 0 0-.31.416c-.14.185-.315.346-.463.522-.124.15-.035.036-.183.256l.068-.104c.024-.039-.103.15-.08.11-.12.157-.252.305-.37.464-.189.186-.298.432-.5.608-.181.168-.38.316-.535.511a4.374 4.374 0 0 0-.513.659c-.167.239-.305.493-.479.728-.133.233-.3.446-.464.659-.22.3-.506.544-.76.813-.52.522-1.114.961-1.657 1.458-.659.598-1.325 1.189-1.953 1.82-.316.358-.7.68-.888 1.13-.204.395-.381.802-.586 1.197-.193.348-.363.709-.55 1.061-.313.595-.578 1.215-.917 1.797-.4.812-.839 1.605-1.171 2.448-.413.906-.816 1.814-1.33 2.669l6.529 3.645zM24.998 431.827c.245-1.4.583-2.783.945-4.157.426-1.52.868-3.037 1.443-4.508.343-.88.681-1.764 1.07-2.626.162-.424.396-.816.604-1.219.165-.305.354-.594.537-.89.294-.438.646-.834.984-1.24.573-.72 1.197-1.393 1.8-2.088.461-.55.955-1.076 1.36-1.67.246-.293.436-.627.667-.93.165-.185.222-.429.32-.65.094-.277.273-.508.374-.783.04-.308.14-.593.242-.884.067-.185.109-.381.127-.577l.005-.08-3.348-1.72v.072a1.688 1.688 0 0 1-.069.497c-.09.292-.218.572-.239.88-.083.27-.267.485-.356.75-.094.199-.15.409-.28.586-.222.316-.404.658-.644.962-.387.585-.849 1.118-1.295 1.657-.6.697-1.228 1.37-1.815 2.078-.37.41-.758.809-1.073 1.264-.178.31-.376.605-.541.922-.196.417-.453.807-.59 1.25-.354.887-.651 1.796-.984 2.691-.546 1.495-1.008 3.019-1.441 4.55-.37 1.366-.673 2.749-1.071 4.107l3.268 1.756z" style="fill:#fff" transform="matrix(.9863 0 0 .9863 174.023 -269.295)"/><path d="M30.543 408.535c-.486.354-1.03.616-1.522.963-.304.304-.654.568-.935.893-.239.357-.416.747-.643 1.112-.357.56-.601 1.177-.844 1.79-.295.902-.588 1.796-.957 2.671-.425 1.103-.785 2.228-1.137 3.355-.264.827-.509 1.66-.746 2.496-.14.502-.22 1.017-.405 1.505-.097.29-.246.56-.39.83-.118.279-.334.476-.529.699-.112.128-.22.26-.338.382-.165.17-.293.37-.43.563-.1.135-.192.275-.26.426-.058.038-.213.381-.222.345l3.202 1.983c.106-.134.151-.295.266-.426.086-.134.137-.29.242-.417.137-.177.247-.372.417-.52.117-.13.232-.26.333-.403.206-.245.437-.47.562-.771.157-.285.323-.573.419-.884.163-.51.26-1.028.369-1.552.224-.838.461-1.672.707-2.505.343-1.117.661-2.244 1.102-3.329.38-.87.723-1.75 1.029-2.646.225-.596.457-1.191.812-1.723.226-.343.423-.701.643-1.046.268-.296.565-.568.865-.83a22.69 22.69 0 0 1 1.528-.93l-3.138-2.03z" style="fill:#fff" transform="matrix(.9863 0 0 .9863 174.023 -269.295)"/><path d="M25.795 431.26c.798-1.01 1.583-2.023 2.264-3.117a21.926 21.926 0 0 0 1.483-2.898c.174-.412.265-.85.39-1.28.048-.192.12-.38.157-.575.01-.393-.005-.786-.008-1.18-.01-.47.004-.942.008-1.413.004-.22.004-.44.014-.66l.002-.04-3.362-1.712.002.04c.01.226.01.45.014.676.005.474.02.949.012 1.424-.002.373-.006.746-.02 1.12.008.18-.074.359-.1.535-.113.423-.214.846-.333 1.267a15.969 15.969 0 0 1-1.36 2.89c-.682 1.085-1.45 2.108-2.367 3.009l3.204 1.915z" style="fill:#fff" transform="matrix(.9863 0 0 .9863 174.023 -269.295)"/><path d="M23.475 426.119c.547-1.027 1.405-1.849 2.23-2.652.424-.36.841-.729 1.261-1.094l-3.117-1.928c-.396.387-.797.77-1.211 1.136-.857.831-1.704 1.687-2.397 2.664l3.234 1.874zM57.276 435.593c.802-1.287 1.412-2.676 2.001-4.07.658-1.64 1.157-3.34 1.579-5.055.283-1.031.461-2.086.71-3.125.094-.436.214-.867.263-1.312.035-.182-.01-.373.06-.545.112-.273.164-.56.188-.851.066-.32.161-.632.272-.94.168-.433.275-.887.427-1.325.141-.36.22-.737.36-1.096.132-.309.296-.603.444-.904.156-.366.33-.723.51-1.076.167-.38.376-.741.577-1.104.249-.427.483-.86.703-1.303.234-.53.466-1.066.649-1.617.165-.424.3-.859.372-1.308.051-.31.058-.624.07-.936 0-.244-.018-.48.042-.717a3.7 3.7 0 0 0 .182-.959c.025-.342.026-.685.024-1.028a139.63 139.63 0 0 1-.018-1.618c0-.64-.002-1.28 0-1.92-.002-.624.004-1.249 0-1.874-.001-.653-.003-1.306 0-1.96a6.05 6.05 0 0 0-.091-1.505 2.657 2.657 0 0 1-.042-1.144c.053-.373.166-.733.288-1.088.177-.42.362-.831.52-1.26.174-.39.24-.81.345-1.22.109-.36.196-.726.244-1.1.014-.104.018-.21.038-.313l-3.344-1.737a3.54 3.54 0 0 1-.01.316 4.429 4.429 0 0 1-.208 1.046c-.122.394-.137.819-.317 1.198a25.26 25.26 0 0 1-.526 1.263c-.143.367-.27.744-.325 1.135-.088.434-.128.84-.01 1.276.09.484.184.955.14 1.453.003.654.001 1.307.001 1.96-.004.625 0 1.25-.001 1.873.002.64 0 1.281.001 1.921-.002.534-.007 1.068-.015 1.601-.002.335.001.67-.013 1.005-.019.3-.045.602-.15.887-.084.267-.125.52-.098.802.008.3.003.602-.026.902a4.734 4.734 0 0 1-.336 1.26 11.365 11.365 0 0 1-.605 1.565c-.237.429-.46.864-.707 1.286-.211.363-.43.726-.596 1.112-.18.354-.354.713-.512 1.078-.157.309-.332.61-.465.93-.146.366-.22.747-.355 1.117-.152.435-.25.889-.431 1.315-.129.337-.23.679-.33 1.027-.016.248-.04.498-.139.73-.106.222-.127.415-.11.662a9.205 9.205 0 0 1-.186 1.297c-.216 1.053-.352 2.122-.626 3.164-.379 1.709-.829 3.41-1.493 5.032-.59 1.373-1.206 2.756-2.158 3.923l3.233 1.874z" style="fill:#fff" transform="matrix(.9863 0 0 .9863 174.023 -269.295)"/><path d="M55.725 430.959c.246-.77.583-1.501.934-2.227.457-.8.846-1.637 1.316-2.429.341-.687.724-1.353 1.063-2.04.3-.658.663-1.285 1.004-1.922.262-.505.58-.976.824-1.49.16-.399.341-.787.476-1.197.135-.498.226-1.007.325-1.513.106-.491.11-.996.18-1.492.094-.434.18-.865.21-1.308.03-.595.148-1.18.201-1.773.105-.692.214-1.381.282-2.077.078-.518.195-1.03.322-1.537.193-.57.48-1.103.73-1.65.264-.486.5-.984.757-1.473.187-.332.39-.65.6-.968.205-.268.378-.56.524-.864.08-.26.216-.489.33-.733.077-.141.12-.288.142-.446.016-.09-.068.041.045.054l-3.12-2.123c-.116.067-.27.188-.27.333a.7.7 0 0 1-.067.34c-.103.245-.252.47-.315.731a5.66 5.66 0 0 1-.487.82c-.226.325-.424.664-.62 1.008-.25.499-.457 1.016-.735 1.501-.267.564-.564 1.116-.779 1.702a15.276 15.276 0 0 0-.34 1.596c-.05.698-.142 1.39-.274 2.078-.057.593-.177 1.176-.228 1.768a7.53 7.53 0 0 1-.198 1.272c-.1.491-.053 1.001-.163 1.493-.095.492-.21.98-.308 1.47-.13.4-.335.762-.468 1.159-.214.519-.53.984-.781 1.485-.335.644-.704 1.27-1.007 1.931-.336.68-.7 1.346-1.034 2.028-.465.805-.854 1.65-1.317 2.457a44.55 44.55 0 0 0-1.02 2.212l3.266 1.824z" style="fill:#fff" transform="matrix(.9863 0 0 .9863 174.023 -269.295)"/><path d="M61.873 427.076c.35-1.202.657-2.415.963-3.629.203-.913.43-1.82.648-2.73.083-.375.132-.755.157-1.138-.017-.235.06-.445.13-.666.087-.322.198-.638.3-.956.147-.398.325-.789.517-1.167.129-.339.321-.646.44-.988.107-.234.215-.469.328-.7.06-.112.073-.24.088-.364 0-.01.002-.019.003-.028l-3.364-1.717.003.022c.006.08.015.167-.011.242a7.52 7.52 0 0 1-.323.742c-.103.329-.298.618-.404.947-.192.397-.386.795-.542 1.206-.12.316-.22.643-.325.963-.07.249-.203.488-.177.751.001.369-.022.738-.085 1.102-.162.927-.382 1.843-.548 2.77-.287 1.196-.575 2.405-1.068 3.537l3.27 1.8zM109.002 414.34c.41-.673.792-1.358 1.113-2.077.331-.784.671-1.564.986-2.353.222-.52.458-1.036.595-1.586.12-.37.185-.754.334-1.113.087-.276.208-.532.376-.767.229-.216.478-.42.722-.625.4-.263.809-.506 1.205-.775.473-.253.924-.543 1.39-.808a7.925 7.925 0 0 0 1.166-.986c.231-.244.427-.52.609-.802.073-.135.167-.252.271-.362.111-.113.132-.285.158-.434-1.103-.621-2.16-1.335-3.31-1.862-.096-.044-.11.18-.165.269a106.65 106.65 0 0 1-1.23 1.954c-.525.818-1.036 1.645-1.44 2.53-.146.363-.225.744-.364 1.11-.089.178-.093.384-.188.56a1.356 1.356 0 0 1-.537.387c-.426.17-.813.399-1.215.613-.264.088-.513.21-.784.28-.281.161-.574.285-.847.458-.187.15-.376.3-.56.455-.106.1-.134.274-.14.416v.13l3.359 1.706c-.003-.08-.002-.04-.003-.122-.002-.107-.026-.133-.01-.145.154-.152.317-.295.502-.407.25-.148.52-.275.787-.385.285-.099.577-.19.834-.35.38-.238.782-.419 1.193-.6.257-.142.528-.304.68-.566.109-.2.151-.397.207-.616.126-.368.216-.738.313-1.115.339-.891.832-1.71 1.34-2.514.33-.514.653-1.037 1.02-1.527.09-.121.184-.24.283-.354.038-.043.172-.086.125-.118-1.035-.69-2.129-1.287-3.193-1.93-.001.08.016.174-.039.23-.108.135-.223.266-.291.426a4.31 4.31 0 0 1-.546.743 6.27 6.27 0 0 1-1.095.91c-.468.278-.946.538-1.411.82-.412.265-.83.521-1.232.802-.273.218-.566.43-.788.698-.187.257-.321.545-.413.849-.152.382-.228.781-.36 1.17-.102.542-.305 1.055-.526 1.558a51.57 51.57 0 0 1-.962 2.345c-.323.702-.679 1.39-1.15 2.006l3.232 1.873z" style="fill:#fff" transform="matrix(.9863 0 0 .9863 174.023 -269.295)"/><path d="M108.78 414.12c.805-.822 1.714-1.547 2.593-2.292.512-.427.27-.227.725-.601l-3.124-1.941c-.418.397-.193.186-.674.63-.876.78-1.806 1.495-2.698 2.257l3.178 1.947zM110.56 406.375c.714-1.169 1.408-2.346 2.008-3.578.614-1.235 1.23-2.47 1.774-3.74.235-.564.451-1.137.681-1.705.13-.262.243-.533.308-.818a.57.57 0 0 1 .143-.345c.082-.153.128-.316.146-.488.003-.266.162-.506.281-.736.102-.184.216-.36.335-.532l-3.246-1.888-.32.564c-.152.265-.351.556-.392.86a.792.792 0 0 1-.045.302c-.104.152-.223.306-.218.497-.035.269-.132.52-.246.765-.23.57-.39 1.17-.614 1.743a39.528 39.528 0 0 1-1.683 3.76c-.609 1.21-1.29 2.388-2.126 3.456l3.214 1.883z" style="fill:#fff" transform="matrix(.9863 0 0 .9863 174.023 -269.295)"/><path d="M115.136 403.773c.17-1.12.608-2.17 1.022-3.218.29-.677.58-1.353.889-2.022l-3.268-1.822c-.232.705-.5 1.398-.782 2.084-.396 1.052-.85 2.086-1.131 3.177l3.27 1.801zM176.1 432.434c.543-1.632 1.108-3.253 1.606-4.9.49-1.62.95-3.251 1.367-4.892.134-.686.31-1.363.44-2.05.046-.416.16-.817.256-1.224.077-.371.17-.747.303-1.104.152-.392.348-.766.578-1.118.289-.485.62-.937.907-1.423.355-.594.808-1.12 1.223-1.671.36-.437.693-.892 1.034-1.343.393-.514.706-1.082 1.086-1.607.258-.368.517-.74.793-1.096.222-.264.44-.542.717-.751.304-.173.546-.437.848-.611.248-.183.48-.35.674-.594.161-.072.231-.07.329-.225.135-.08.2-.25.269-.386.02-.042.04-.086.058-.13l-3.315-1.815a.405.405 0 0 1-.025.094.842.842 0 0 1-.24.33c.097-.169-.285.18-.304.21-.158.21-.388.336-.594.497-.291.21-.57.44-.863.647a5.86 5.86 0 0 0-.77.828c-.262.369-.518.743-.769 1.12-.368.526-.674 1.096-1.08 1.594-.346.449-.688.899-1.027 1.352-.42.563-.875 1.102-1.242 1.703-.293.478-.637.916-.924 1.397-.244.373-.454.77-.627 1.182-.145.368-.238.767-.328 1.152-.088.417-.226.822-.246 1.25-.11.693-.28 1.373-.364 2.07a50.754 50.754 0 0 1-1.225 4.937c-.508 1.618-1.071 3.216-1.791 4.754l3.246 1.823z" style="fill:#fff" transform="matrix(.9863 0 0 .9863 174.023 -269.295)"/><path d="M177.346 434.002c.189-1.154.5-2.28.833-3.4.5-1.692 1.082-3.359 1.645-5.03.272-.96.762-1.826 1.198-2.715.347-.656.694-1.312 1.074-1.949.267-.444.52-.897.787-1.34.309-.5.545-1.046.778-1.585.308-.627.608-1.257.89-1.896.134-.393.396-.718.557-1.096.152-.282.305-.564.449-.851.11-.27.24-.536.39-.786.141-.225.29-.444.432-.67.06-.166.152-.294.243-.438.061-.107.033-.056.086-.154l-3.27-1.865c-.037.078-.017.038-.061.118a1.531 1.531 0 0 0-.246.458c-.13.23-.289.441-.425.668-.16.258-.28.545-.402.822-.14.298-.311.578-.46.871-.148.38-.405.711-.52 1.107-.278.64-.553 1.281-.875 1.901-.24.522-.483 1.047-.795 1.53-.252.453-.504.905-.758 1.357-.372.653-.73 1.313-1.066 1.984-.443.909-.914 1.809-1.166 2.795a157.688 157.688 0 0 1-1.598 5.055 57.46 57.46 0 0 0-1.02 3.345l3.3 1.764zM748.607 438.858c.376-.382.764-.752 1.147-1.127.406-.379.776-.793 1.167-1.186.182-.19.33-.398.465-.622.114-.227.252-.44.382-.658.1-.145.18-.304.26-.461.088-.144-.055.037.046-.06.038-.09.122-.193.114-.297.044-.159.138-.3.235-.43l-3.226-1.893c-.101.165-.217.323-.292.502a.544.544 0 0 0-.049.159c-.049.055-.113.11-.115.188a1.391 1.391 0 0 1-.188.424c-.135.214-.265.431-.384.655-.129.2-.266.391-.407.583-.334.423-.683.836-1.08 1.203-.404.374-.813.746-1.263 1.067l3.188 1.953z" style="fill:#fff" transform="matrix(.9863 0 0 .9863 174.023 -269.295)"/><path d="M749.66 440.904c.476-.473 1.017-.866 1.573-1.239.608-.384 1.224-.764 1.752-1.257a7.8 7.8 0 0 0 .848-1c.119-.215.297-.395.413-.612.042-.079.1-.143.148-.225.054-.079.116-.147.164-.23l.038-.065-3.25-1.875-.025.046c-.07.082-.137.165-.196.255-.037.087-.124.148-.14.245-.08.212-.23.392-.33.595-.229.34-.513.643-.777.956-.484.493-1.076.863-1.646 1.247-.566.38-1.12.787-1.71 1.129l3.138 2.03z" style="fill:#fff" transform="matrix(.9863 0 0 .9863 174.023 -269.295)"/><path d="M751.815 442.762c.469-.69 1.07-1.276 1.67-1.849.503-.469 1.039-.902 1.53-1.383.102-.167.315-.213.422-.363.08-.025.1-.103.165-.147l.028-.018c.005.006.01.022.016.018.06-.034.121-.12.171-.172l-3.216-1.96c-.058.062-.138.075-.192.146-.088.09-.107.102-.201.202a2.205 2.205 0 0 0-.338.382c-.43.51-.906.981-1.384 1.448-.624.6-1.25 1.201-1.87 1.807l3.2 1.889z" style="fill:#fff" transform="matrix(.9863 0 0 .9863 174.023 -269.295)"/><path d="M753.245 444.49c.68-.517 1.418-.957 2.137-1.416.519-.329 1.034-.664 1.507-1.057.051-.103.166-.16.234-.248.08-.106.014-.05.062-.088.062-.108.131-.21.213-.304.078-.094.096-.142.145-.26.03-.054.012-.027.054-.082l-3.23-1.903c-.063.096-.03.045-.097.153-.04.1-.074.107-.104.172-.065.098-.134.193-.201.289-.08.107-.16.217-.238.326-.375.432-.846.77-1.312 1.097-.736.488-1.493.943-2.307 1.29l3.137 2.03zM439.981 403.183c.127-.211.193-.464.368-.642a1.08 1.08 0 0 0 .2-.386c-.058.102.087-.128.1-.146.045-.058.1-.166-.055.11.062-.089.134-.17.201-.256-.088.236.105-.044.146-.114-.028.134.123-.126.146-.163l.015-.026-3.279-1.867-.005.015c-.035.08-.09.047-.145.162.09-.185-.087.03-.127.07-.024.036-.104.118-.022-.018-.086.11-.103.112-.14.197-.045.092-.104.175-.155.264a.377.377 0 0 1-.094.238c-.15.219-.226.474-.387.688l3.234 1.874z" style="fill:#fff" transform="matrix(.9863 0 0 .9863 174.023 -269.295)"/><path d="M439.673 403.427c.19-.14.379-.286.563-.436.142-.106.088.069.223-.118l-3.252-1.938 3.194 1.986-3.177-2.004c.164-.232-.132.067-.172.098-.163.162-.348.29-.543.41l3.164 2.002z" style="fill:#fff" transform="matrix(.9863 0 0 .9863 174.023 -269.295)"/><path d="M439.236 403.864c.141-.14.326-.226.472-.36.065-.057.133-.112.2-.169.046-.04.073-.094.101-.147.083-.057.124-.144.203-.204.072-.124.134-.183.212-.286.054-.084.109-.162.159-.247.101-.06.155-.157.21-.258.012-.027.103-.2.03-.071.044-.014.137-.232.126-.186.047-.08.098-.158.149-.235a.438.438 0 0 0 .059-.24c-.01-.046.03-.135-.031-.01-.062.124.057-.1.068-.118.044-.092.06-.19.118-.275.027-.01.164-.37.08-.178.07-.092.126-.18.163-.29.015-.046.026-.094.038-.14l-3.355-1.738a.28.28 0 0 1 .006.087.17.17 0 0 1-.07.12c-.059.09-.074.153-.11.245-.053.09-.12.175-.126.281-.054.097-.15.188-.136.304-.002.07.003.094.026.07a.747.747 0 0 1-.109.187c-.08.118-.038.083-.13.178-.082.121-.05.062-.069.15-.034.094-.138.14-.186.228a1.94 1.94 0 0 0-.142.216c-.059.077-.122.15-.175.23-.091.096-.18.196-.264.299-.019.015-.045.031-.06.05a1.37 1.37 0 0 1-.163.159c-.154.112-.29.25-.457.347l3.163 2z" style="fill:#fff" transform="matrix(.9863 0 0 .9863 174.023 -269.295)"/><path d="M1003.522-40.04c-1.117.08-2.234.164-3.35.237-.47.024-.938.036-1.406.06v.226h4.953c-.062-.175-.145-.346-.197-.522zm-183 .232c-4.667.009-9.333.044-14 .102v.19h14zm40.722.264v.027h1.627c-.542-.006-1.085-.021-1.627-.027z" style="font-style:normal;font-variant:normal;font-weight:700;font-stretch:normal;font-size:74.6667px;font-family:&quot;Al Bayan&quot;;-inkscape-font-specification:&quot;Al Bayan, Bold&quot;;font-variant-ligatures:normal;font-variant-caps:normal;font-variant-numeric:normal;font-variant-east-asian:normal;white-space:pre;shape-inside:url(#a);fill:#fff" transform="matrix(.78515 0 0 .78515 -357.592 308.775)"/><text xml:space="preserve" style="font-style:normal;font-variant:normal;font-weight:700;font-stretch:normal;font-size:48px;font-family:sans-serif;-inkscape-font-specification:&quot;sans-serif, Bold&quot;;font-variant-ligatures:normal;font-variant-caps:normal;font-variant-numeric:normal;font-variant-east-asian:normal;white-space:pre;shape-inside:url(#b);display:inline;fill:#fff" transform="translate(14.085 16.432)"><tspan x="302.822" y="248.02">PHOTOGRAPHY</tspan></text></svg>